<?xml version="1.0" standalone="no"?>
<!DOCTYPE svg PUBLIC "-//W3C//DTD SVG 20010904//EN"
 "http://www.w3.org/TR/2001/REC-SVG-20010904/DTD/svg10.dtd">
<svg version="1.0" xmlns="http://www.w3.org/2000/svg"
 width="16.000000pt" height="16.000000pt" viewBox="0 0 16.000000 16.000000"
 preserveAspectRatio="xMidYMid meet">
<metadata>
Created by potrace 1.11, written by Peter Selinger 2001-2013
</metadata>
<g transform="translate(0.000000,16.000000) scale(0.000462,-0.000462)"
fill="#000000" stroke="none">
<path d="M6600 30290 c-136 -23 -205 -41 -312 -83 -203 -80 -387 -206 -554
-380 -188 -195 -300 -399 -382 -692 -24 -84 -31 -122 -57 -295 -14 -87 -18
-265 -19 -717 -1 -325 -5 -516 -11 -522 -6 -5 -77 -31 -160 -59 -598 -199
-1200 -466 -1670 -740 -44 -25 -89 -51 -100 -58 -11 -6 -60 -36 -110 -68 -49
-31 -99 -62 -110 -69 -46 -28 -320 -215 -350 -239 -5 -5 -46 -35 -90 -68 -124
-93 -134 -100 -235 -184 -294 -245 -620 -565 -815 -799 -22 -27 -50 -60 -63
-75 -12 -15 -55 -70 -94 -122 -40 -52 -75 -97 -78 -100 -14 -13 -203 -298
-213 -320 -4 -8 -24 -44 -46 -80 -39 -64 -142 -267 -176 -345 -9 -22 -23 -53
-31 -70 -51 -113 -151 -445 -170 -564 -3 -20 -8 -39 -9 -42 -2 -3 -7 -28 -10
-55 -3 -27 -8 -58 -10 -69 -12 -60 -19 -190 -20 -350 0 -221 8 -308 41 -460 9
-38 17 -77 19 -85 10 -44 72 -205 107 -278 205 -421 625 -745 1073 -826 17 -3
41 -8 55 -11 50 -10 167 -18 260 -18 158 1 226 9 400 48 32 7 147 54 185 75
140 79 222 164 299 309 l28 53 -30 102 c-56 185 -79 291 -107 491 -13 94 -18
146 -30 315 -6 84 -6 334 -1 382 10 76 29 165 53 243 26 84 139 328 154 333 5
2 9 8 9 13 0 8 81 135 112 174 169 220 492 558 688 719 52 43 104 86 115 95
157 129 553 395 765 513 25 14 63 35 85 48 67 38 285 150 286 148 6 -11 2
-17051 -3 -17054 -4 -2 -22 2 -40 10 -18 8 -82 33 -143 56 -347 132 -688 294
-1017 484 -541 312 -1080 754 -1453 1191 -33 39 -62 72 -65 75 -8 8 -71 88
-126 160 -196 255 -402 613 -514 890 -23 58 -46 114 -51 125 -39 91 -149 468
-165 565 -2 14 -7 36 -10 50 -3 14 -8 36 -10 50 -3 14 -9 48 -14 75 -36 193
-58 448 -60 707 l-1 116 -57 54 c-151 143 -331 209 -572 209 -111 0 -159 -3
-197 -15 -10 -3 -29 -7 -43 -10 -41 -7 -156 -53 -207 -82 -165 -95 -341 -287
-425 -464 -34 -69 -74 -208 -87 -297 -9 -60 -7 -468 3 -533 2 -14 7 -61 10
-105 4 -44 9 -89 11 -100 2 -11 7 -42 10 -70 5 -42 18 -121 41 -240 3 -16 25
-117 29 -135 1 -3 5 -21 9 -40 4 -19 19 -75 33 -125 291 -1057 970 -2020 2038
-2891 321 -262 723 -538 1035 -711 14 -8 43 -24 65 -37 326 -183 765 -387
1085 -505 63 -24 135 -51 160 -61 65 -26 471 -158 540 -175 8 -2 49 -14 90
-25 41 -12 82 -23 90 -25 8 -2 94 -24 190 -48 186 -47 309 -76 350 -83 14 -3
79 -16 145 -29 66 -13 140 -26 165 -30 25 -3 61 -10 80 -15 19 -5 55 -12 80
-14 25 -3 56 -8 70 -11 56 -11 77 -15 129 -20 30 -4 61 -8 70 -10 9 -1 41 -6
71 -10 30 -3 66 -8 80 -10 14 -2 50 -7 80 -10 30 -3 66 -7 80 -10 14 -2 54 -7
90 -11 69 -7 80 -8 205 -18 44 -4 96 -9 115 -11 19 -2 82 -7 140 -10 58 -4
123 -8 145 -10 319 -27 1440 -27 2045 0 241 10 583 30 705 40 33 2 92 7 130
10 64 4 103 7 255 20 124 11 187 16 220 20 43 5 156 17 190 20 41 3 164 17
182 21 9 1 48 6 85 9 37 4 77 9 88 11 11 2 43 6 70 9 28 4 61 8 75 10 14 2 43
6 65 9 22 4 56 8 75 10 53 7 133 18 152 21 9 2 38 7 65 11 26 3 57 8 68 10 10
2 37 6 60 9 22 3 63 10 90 15 28 5 66 12 85 15 19 3 62 10 95 16 33 6 70 12
83 14 12 2 30 6 40 9 9 3 35 7 57 11 113 16 499 99 755 161 102 25 192 47 200
49 154 36 555 154 830 245 533 176 1048 396 1525 650 283 150 619 362 877 551
135 99 321 244 359 281 8 7 41 36 73 63 68 58 71 60 237 221 112 108 163 162
295 305 134 146 390 487 514 684 116 185 272 478 362 680 23 53 123 306 143
365 1 3 4 12 8 20 6 14 61 188 92 290 22 70 71 265 94 370 20 91 25 116 36
178 5 27 16 83 21 112 2 8 6 33 9 55 3 22 7 51 9 65 3 14 7 48 11 75 3 28 8
64 10 80 10 66 14 103 20 180 4 44 8 94 10 112 19 161 26 712 12 963 -7 131
-10 158 -23 285 -3 33 -7 74 -9 90 -4 47 -15 125 -25 185 -5 30 -12 73 -15 95
-14 86 -17 104 -41 220 -59 291 -167 649 -276 915 -99 242 -264 585 -367 764
-28 49 -51 90 -51 92 0 19 -222 354 -313 474 -118 155 -183 228 -356 400 -181
180 -210 206 -351 321 -235 190 -497 368 -765 519 -71 40 -179 101 -240 135
-188 106 -206 115 -380 204 -168 86 -206 103 -357 165 l-77 32 32 18 c76 44
278 181 327 224 8 7 47 37 85 68 246 198 563 519 843 854 58 69 117 140 132
157 15 18 35 44 46 59 10 14 24 31 30 38 45 48 264 377 264 396 0 6 3 10 8 10
4 0 12 10 18 23 6 12 47 92 91 177 108 212 158 329 234 548 43 126 118 392
144 512 8 41 18 84 20 95 3 11 9 45 15 75 6 30 12 64 14 75 2 11 6 41 10 66 4
25 9 57 11 70 7 43 25 183 30 244 3 33 8 76 10 95 30 250 34 716 10 1080 -1
19 -5 60 -9 90 -4 30 -9 73 -12 95 -3 22 -7 51 -9 65 -2 14 -7 45 -10 70 -5
36 -28 158 -50 273 -31 154 -115 425 -196 632 -82 209 -170 387 -310 625 -69
118 -255 377 -363 505 -177 211 -462 494 -624 619 -15 11 -36 29 -47 39 -11
11 -83 66 -160 124 -77 57 -148 110 -157 118 -9 7 -27 19 -39 26 -13 6 -32 20
-43 30 -11 11 -26 19 -33 19 -7 0 -13 5 -13 10 0 6 -7 10 -15 10 -8 0 -15 5
-15 10 0 6 -5 10 -10 10 -10 0 -67 36 -80 50 -8 9 -311 186 -403 237 -148 80
-579 290 -736 358 -380 163 -808 315 -1246 441 -283 82 -778 201 -995 240 -14
2 -45 9 -70 14 -42 9 -141 28 -185 35 -267 46 -418 70 -500 80 -21 3 -50 7
-64 9 -35 6 -96 14 -151 21 -25 4 -56 8 -70 10 -23 4 -44 6 -167 20 -24 3 -64
8 -90 11 -27 3 -68 7 -93 10 -25 2 -66 6 -92 9 -77 8 -138 14 -218 20 -41 4
-93 8 -115 10 -95 9 -450 32 -620 40 -442 21 -1143 27 -1497 12 -152 -7 -188
-6 -189 5 0 7 -1 395 -1 862 l-1 848 -26 25 c-154 145 -357 270 -563 347 -82
30 -124 43 -243 70 -5 2 -32 6 -60 10 -27 4 -61 10 -75 13 -14 3 -106 6 -205
8 -137 2 -205 -1 -285 -15z m2775 -3854 c28 -2 102 -7 165 -11 63 -4 133 -8
155 -10 22 -2 76 -6 120 -10 160 -12 250 -21 315 -30 14 -2 52 -7 85 -10 33
-3 71 -8 85 -10 14 -2 48 -6 75 -10 119 -15 234 -32 335 -49 14 -3 41 -7 60
-10 19 -3 60 -10 90 -16 30 -6 68 -13 84 -16 319 -56 1017 -242 1181 -314 11
-5 31 -12 45 -16 150 -40 721 -295 945 -421 39 -22 93 -52 120 -68 104 -59
253 -151 345 -214 81 -55 254 -184 270 -201 3 -3 34 -29 70 -59 66 -56 246
-233 310 -306 99 -113 300 -388 300 -411 0 -3 9 -18 19 -33 27 -38 123 -232
164 -331 91 -222 175 -541 193 -735 3 -27 7 -61 9 -75 29 -155 23 -712 -10
-950 -2 -19 -7 -57 -11 -85 -3 -27 -8 -59 -10 -70 -2 -10 -6 -37 -10 -60 -3
-22 -12 -71 -21 -110 -8 -38 -17 -81 -19 -95 -18 -95 -122 -439 -153 -505 -5
-11 -26 -60 -47 -110 -78 -188 -222 -443 -351 -618 -36 -51 -69 -94 -73 -97
-3 -3 -21 -25 -40 -50 -69 -89 -164 -188 -270 -280 -41 -36 -77 -67 -80 -70
-8 -8 -70 -53 -141 -103 -320 -222 -774 -413 -1274 -534 -91 -22 -313 -68
-375 -78 -19 -3 -57 -10 -85 -15 -27 -5 -70 -12 -95 -15 -25 -3 -72 -10 -105
-15 -33 -5 -85 -12 -115 -15 -30 -3 -66 -8 -80 -10 -74 -11 -276 -30 -420 -40
-262 -17 -443 -24 -780 -30 -140 -2 -266 -7 -280 -10 -14 -3 -45 -8 -70 -11
-68 -9 -167 -42 -249 -82 -130 -64 -263 -220 -296 -347 -5 -16 -9 -34 -11 -40
-22 -74 -27 -308 -9 -435 27 -201 116 -411 233 -548 111 -131 207 -199 358
-252 76 -27 128 -32 359 -35 406 -6 726 -21 1060 -49 45 -4 76 -7 215 -21 25
-3 68 -8 95 -11 28 -4 64 -8 80 -9 33 -3 254 -33 298 -40 15 -3 42 -7 60 -10
93 -16 164 -28 282 -51 213 -42 286 -58 435 -96 63 -16 122 -31 130 -34 139
-33 496 -152 670 -222 252 -101 511 -229 690 -338 36 -22 90 -56 120 -74 246
-152 548 -409 760 -649 122 -138 322 -410 353 -481 4 -8 13 -24 19 -35 34 -53
62 -103 113 -204 182 -361 315 -795 375 -1221 6 -47 14 -96 16 -110 2 -14 6
-50 9 -80 4 -30 8 -66 10 -80 4 -27 14 -168 20 -295 6 -109 5 -468 0 -590 -4
-95 -9 -159 -21 -285 -5 -54 -7 -72 -19 -180 -27 -237 -106 -607 -176 -825
-13 -38 -23 -72 -24 -75 -23 -109 -209 -533 -313 -714 -29 -49 -52 -90 -52
-92 0 -9 -172 -259 -228 -333 -180 -236 -430 -493 -633 -653 -19 -15 -65 -52
-104 -83 -96 -76 -305 -217 -455 -307 -445 -266 -996 -498 -1590 -668 -213
-61 -473 -129 -525 -137 -16 -2 -43 -8 -60 -13 -16 -5 -111 -26 -210 -46 -204
-41 -181 -36 -340 -64 -66 -11 -131 -22 -145 -25 -14 -2 -41 -6 -60 -9 -19 -2
-80 -11 -135 -20 -201 -30 -213 -32 -305 -41 -36 -4 -67 -9 -70 -10 -3 -2 -43
-6 -90 -10 -47 -4 -87 -8 -90 -10 -3 -2 -45 -6 -95 -10 -49 -4 -98 -9 -109
-11 -10 -2 -53 -6 -95 -9 -42 -3 -92 -7 -111 -10 -19 -2 -75 -6 -125 -10 -49
-3 -117 -8 -150 -10 -137 -10 -217 -15 -340 -20 -71 -4 -161 -8 -200 -10 -236
-13 -1154 -24 -1156 -15 -4 19 -3 18444 1 18450 4 7 29 11 140 25 14 2 70 7
125 10 55 4 102 9 104 11 6 5 769 -4 836 -10z"/>
<path d="M32016 26982 c-2 -1 -1168 -4 -2592 -7 -3480 -6 -8632 -16 -9512 -18
l-714 -2 -68 -71 c-196 -206 -284 -441 -275 -739 5 -146 8 -171 37 -270 82
-283 272 -475 568 -575 76 -25 219 -56 305 -66 33 -4 548 -7 1145 -8 l1085 -2
3 -3387 2 -3386 -944 0 -944 -1 -55 -57 c-163 -171 -246 -338 -282 -568 -18
-119 0 -358 36 -475 61 -195 200 -370 373 -469 143 -81 374 -146 563 -156 43
-2 342 -4 666 -4 l587 -1 0 -1418 0 -1418 -228 -229 c-208 -210 -410 -422
-523 -550 -24 -27 -61 -68 -81 -90 -20 -22 -46 -51 -58 -65 -12 -14 -31 -36
-43 -50 -59 -66 -282 -337 -356 -430 -45 -58 -90 -114 -99 -125 -41 -51 -246
-332 -314 -430 -142 -207 -164 -240 -264 -400 -365 -581 -638 -1149 -830
-1730 -95 -290 -195 -674 -228 -885 -3 -19 -8 -47 -11 -63 -38 -211 -69 -482
-80 -717 -6 -106 -6 -492 0 -615 7 -157 15 -300 20 -325 2 -14 6 -56 9 -95 17
-235 87 -635 151 -860 14 -49 28 -100 30 -111 21 -96 138 -391 225 -564 307
-617 811 -1035 1390 -1155 8 -1 33 -8 55 -13 22 -6 63 -13 90 -16 28 -4 77
-10 110 -14 121 -14 599 -6 717 13 13 2 50 6 82 10 218 24 580 116 786 200
261 107 508 256 726 436 37 32 263 257 289 289 11 14 45 57 75 95 30 39 57 72
60 75 7 6 110 162 146 220 93 150 201 375 289 600 47 122 141 390 150 429 2 9
18 63 35 121 28 97 75 272 85 316 2 11 17 78 34 149 25 110 99 489 115 590 2
17 9 59 14 95 25 153 25 154 37 243 7 54 16 115 20 147 2 14 7 48 10 75 3 28
7 64 9 80 2 17 7 59 11 95 3 36 8 76 10 90 2 14 7 59 11 100 3 41 7 86 9 100
1 14 6 63 10 110 4 47 9 99 11 115 1 17 6 75 9 130 4 55 9 116 10 135 2 19 6
87 9 150 4 63 9 140 11 170 2 30 7 125 10 210 4 85 8 191 10 235 14 308 17
1081 18 3638 l0 2907 3286 0 3285 0 56 58 c195 207 282 418 284 692 1 190 -20
293 -91 435 -55 109 -113 179 -273 323 -80 72 -273 177 -364 197 -180 40 -207
44 -305 50 -36 2 -1374 4 -2972 5 l-2906 0 0 3370 c0 1854 3 3370 6 3371 3 1
2147 2 4764 2 l4759 2 50 50 c150 148 249 338 282 542 14 82 15 306 2 358 -60
241 -132 357 -336 541 -134 120 -311 206 -495 238 -16 3 -40 8 -53 10 -76 16
-270 20 -965 20 -428 1 -780 0 -781 -2z m-10020 -15909 c-4 -533 -8 -1026 -10
-1098 -3 -131 -16 -596 -21 -755 -2 -76 -5 -156 -20 -515 -2 -55 -7 -143 -10
-195 -2 -52 -7 -142 -11 -200 -3 -58 -7 -132 -10 -165 -2 -33 -6 -96 -9 -140
-3 -44 -7 -105 -9 -135 -3 -30 -8 -91 -11 -135 -4 -44 -8 -93 -10 -110 -1 -16
-6 -64 -9 -105 -4 -41 -9 -91 -11 -110 -2 -19 -7 -60 -10 -90 -12 -101 -14
-125 -20 -175 -4 -27 -8 -61 -10 -75 -2 -14 -7 -45 -10 -70 -14 -101 -66 -389
-88 -490 -88 -389 -223 -641 -390 -727 -44 -22 -65 -27 -137 -27 -107 -1 -147
7 -226 45 -207 98 -378 405 -463 829 -6 30 -14 66 -16 80 -9 41 -43 281 -49
335 -3 28 -8 82 -11 120 -3 39 -8 93 -10 121 -27 310 -21 923 10 1149 2 17 7
55 10 85 5 49 18 135 30 213 3 15 7 42 10 60 15 91 50 257 81 377 18 74 36
146 40 160 57 228 212 659 341 950 30 66 243 495 284 570 100 183 247 426 388
640 129 196 379 550 389 550 3 0 2 -435 -2 -967z"/>
</g>
</svg>
