<?xml version="1.0" encoding="UTF-8" standalone="no"?>
<!-- Created with Inkscape (http://www.inkscape.org/) -->

<svg
   xmlns:dc="http://purl.org/dc/elements/1.1/"
   xmlns:cc="http://creativecommons.org/ns#"
   xmlns:rdf="http://www.w3.org/1999/02/22-rdf-syntax-ns#"
   xmlns:svg="http://www.w3.org/2000/svg"
   xmlns="http://www.w3.org/2000/svg"
   xmlns:sodipodi="http://sodipodi.sourceforge.net/DTD/sodipodi-0.dtd"
   xmlns:inkscape="http://www.inkscape.org/namespaces/inkscape"
   width="91mm"
   height="89mm"
   viewBox="0 0 91 89"
   version="1.1"
   id="svg8"
   inkscape:version="0.92.1 r15371"
   sodipodi:docname="SpinnenwebLinksSpin.svg">
  <defs
     id="defs2">
    <inkscape:path-effect
       effect="skeletal"
       id="path-effect4523-4-4-6-6-2-5-7-5-3"
       is_visible="true"
       pattern="m -731.25755,1212.023 c 0,-2.76 2.24,-5 5,-5 2.76,0 5,2.24 5,5 0,2.76 -2.24,5 -5,5 -2.76,0 -5,-2.24 -5,-5 z"
       copytype="single_stretched"
       prop_scale="0.11713975"
       scale_y_rel="false"
       spacing="0"
       normal_offset="0"
       tang_offset="0"
       prop_units="false"
       vertical_pattern="false"
       fuse_tolerance="0" />
    <inkscape:path-effect
       effect="skeletal"
       id="path-effect4523-4-4-6-6-2-5-26-9-8"
       is_visible="true"
       pattern="m -759.05355,1159.6382 c 0,-2.76 2.24,-5 5,-5 2.76,0 5,2.24 5,5 0,2.76 -2.24,5 -5,5 -2.76,0 -5,-2.24 -5,-5 z"
       copytype="single_stretched"
       prop_scale="0.11713975"
       scale_y_rel="false"
       spacing="0"
       normal_offset="0"
       tang_offset="0"
       prop_units="false"
       vertical_pattern="false"
       fuse_tolerance="0" />
    <inkscape:path-effect
       effect="skeletal"
       id="path-effect4523-4-4-6-6-2-5-11-0-07"
       is_visible="true"
       pattern="m -728.58485,1106.7188 c 0,-2.76 2.24,-5 5,-5 2.76,0 5,2.24 5,5 0,2.76 -2.24,5 -5,5 -2.76,0 -5,-2.24 -5,-5 z"
       copytype="single_stretched"
       prop_scale="0.11713975"
       scale_y_rel="false"
       spacing="0"
       normal_offset="0"
       tang_offset="0"
       prop_units="false"
       vertical_pattern="false"
       fuse_tolerance="0" />
    <inkscape:path-effect
       effect="skeletal"
       id="path-effect4523-4-4-6-6-2-5-7-57"
       is_visible="true"
       pattern="m -520.74152,1002.6054 c 0,-2.76002 2.24,-5.00002 5,-5.00002 2.76,0 5,2.24 5,5.00002 0,2.76 -2.24,5 -5,5 -2.76,0 -5,-2.24 -5,-5 z"
       copytype="single_stretched"
       prop_scale="0.11713975"
       scale_y_rel="false"
       spacing="0"
       normal_offset="0"
       tang_offset="0"
       prop_units="false"
       vertical_pattern="false"
       fuse_tolerance="0" />
    <inkscape:path-effect
       effect="skeletal"
       id="path-effect4523-4-4-6-6-2-5-26-17"
       is_visible="true"
       pattern="m -548.53752,950.22058 c 0,-2.76 2.24,-5 5,-5 2.76,0 5,2.24 5,5 0,2.76 -2.24,5 -5,5 -2.76,0 -5,-2.24 -5,-5 z"
       copytype="single_stretched"
       prop_scale="0.11713975"
       scale_y_rel="false"
       spacing="0"
       normal_offset="0"
       tang_offset="0"
       prop_units="false"
       vertical_pattern="false"
       fuse_tolerance="0" />
    <inkscape:path-effect
       effect="skeletal"
       id="path-effect4523-4-4-6-6-2-5-11-3"
       is_visible="true"
       pattern="m -518.06882,897.30118 c 0,-2.76 2.24,-5 5,-5 2.76,0 5,2.24 5,5 0,2.76 -2.24,5 -5,5 -2.76,0 -5,-2.24 -5,-5 z"
       copytype="single_stretched"
       prop_scale="0.11713975"
       scale_y_rel="false"
       spacing="0"
       normal_offset="0"
       tang_offset="0"
       prop_units="false"
       vertical_pattern="false"
       fuse_tolerance="0" />
    <inkscape:path-effect
       effect="skeletal"
       id="path-effect4523-4-4-6-6-2-5-26-1-1"
       is_visible="true"
       pattern="m -930.47297,1256.285 c 0,-2.76 2.24,-5 5,-5 2.76,0 5,2.24 5,5 0,2.76 -2.24,5 -5,5 -2.76,0 -5,-2.24 -5,-5 z"
       copytype="single_stretched"
       prop_scale="0.20871454"
       scale_y_rel="false"
       spacing="0"
       normal_offset="0"
       tang_offset="0"
       prop_units="false"
       vertical_pattern="false"
       fuse_tolerance="0" />
    <inkscape:path-effect
       effect="skeletal"
       id="path-effect4523-4-4-6-6-2-5-26-1-1-6"
       is_visible="true"
       pattern="m -1035.5735,1223.1887 c 0,-2.76 2.24,-5 5,-5 2.76,0 5,2.24 5,5 0,2.76 -2.24,5 -5,5 -2.76,0 -5,-2.24 -5,-5 z"
       copytype="single_stretched"
       prop_scale="0.20871454"
       scale_y_rel="false"
       spacing="0"
       normal_offset="0"
       tang_offset="0"
       prop_units="false"
       vertical_pattern="false"
       fuse_tolerance="0" />
    <inkscape:path-effect
       effect="skeletal"
       id="path-effect4523-4-4-6-6-2-5-26-1-1-6-4"
       is_visible="true"
       pattern="m -1223.3983,1210.5316 c 0,-2.76 2.24,-5 5,-5 2.76,0 5,2.24 5,5 0,2.76 -2.24,5 -5,5 -2.76,0 -5,-2.24 -5,-5 z"
       copytype="single_stretched"
       prop_scale="0.20871454"
       scale_y_rel="false"
       spacing="0"
       normal_offset="0"
       tang_offset="0"
       prop_units="false"
       vertical_pattern="false"
       fuse_tolerance="0" />
    <inkscape:path-effect
       effect="skeletal"
       id="path-effect4523-4-4-6-6-2-5-26-1-1-3"
       is_visible="true"
       pattern="m -1118.2976,1243.6279 c 0,-2.76 2.24,-5 5,-5 2.76,0 5,2.24 5,5 0,2.76 -2.24,5 -5,5 -2.76,0 -5,-2.24 -5,-5 z"
       copytype="single_stretched"
       prop_scale="0.20871454"
       scale_y_rel="false"
       spacing="0"
       normal_offset="0"
       tang_offset="0"
       prop_units="false"
       vertical_pattern="false"
       fuse_tolerance="0" />
    <inkscape:path-effect
       effect="skeletal"
       id="path-effect4523-4-4-6-6-2-5-26-1-1-6-4-7"
       is_visible="true"
       pattern="m -1411.4954,1098.3035 c 0,-2.76 2.24,-5 5,-5 2.76,0 5,2.24 5,5 0,2.7599 -2.24,4.9999 -5,4.9999 -2.76,0 -5,-2.24 -5,-4.9999 z"
       copytype="single_stretched"
       prop_scale="0.16767786"
       scale_y_rel="false"
       spacing="0"
       normal_offset="0"
       tang_offset="0"
       prop_units="false"
       vertical_pattern="false"
       fuse_tolerance="0" />
    <inkscape:path-effect
       effect="skeletal"
       id="path-effect4523-4-4-6-6-2-5-26-1-1-3-3"
       is_visible="true"
       pattern="m -1306.3947,1131.3997 c 0,-2.76 2.24,-5 5,-5 2.76,0 5,2.24 5,5 0,2.76 -2.24,5 -5,5 -2.76,0 -5,-2.24 -5,-5 z"
       copytype="single_stretched"
       prop_scale="0.16767786"
       scale_y_rel="false"
       spacing="0"
       normal_offset="0"
       tang_offset="0"
       prop_units="false"
       vertical_pattern="false"
       fuse_tolerance="0" />
    <inkscape:path-effect
       effect="skeletal"
       id="path-effect4523-4-4-6-6-2-5-26-1-1-6-1"
       is_visible="true"
       pattern="m -1223.6706,1110.9605 c 0,-2.76 2.24,-5 5,-5 2.76,0 5,2.24 5,5 0,2.76 -2.24,5 -5,5 -2.76,0 -5,-2.24 -5,-5 z"
       copytype="single_stretched"
       prop_scale="0.16767786"
       scale_y_rel="false"
       spacing="0"
       normal_offset="0"
       tang_offset="0"
       prop_units="false"
       vertical_pattern="false"
       fuse_tolerance="0" />
    <inkscape:path-effect
       effect="skeletal"
       id="path-effect4523-4-4-6-6-2-5-26-1-1-5"
       is_visible="true"
       pattern="m -1118.5699,1144.0568 c 0,-2.76 2.24,-5 5,-5 2.76,0 5,2.24 5,5 0,2.76 -2.24,5 -5,5 -2.76,0 -5,-2.24 -5,-5 z"
       copytype="single_stretched"
       prop_scale="0.16767786"
       scale_y_rel="false"
       spacing="0"
       normal_offset="0"
       tang_offset="0"
       prop_units="false"
       vertical_pattern="false"
       fuse_tolerance="0" />
    <inkscape:path-effect
       effect="skeletal"
       id="path-effect4523-4-4-6-6-2-5-26-1-1-6-4-2"
       is_visible="true"
       pattern="m -1397.0915,1092.634 c 0,-2.7599 2.24,-4.9999 5,-4.9999 2.76,0 5,2.24 5,4.9999 0,2.76 -2.24,5 -5,5 -2.76,0 -5,-2.24 -5,-5 z"
       copytype="single_stretched"
       prop_scale="0.13765002"
       scale_y_rel="false"
       spacing="0"
       normal_offset="0"
       tang_offset="0"
       prop_units="false"
       vertical_pattern="false"
       fuse_tolerance="0" />
    <inkscape:path-effect
       effect="skeletal"
       id="path-effect4523-4-4-6-6-2-5-26-1-1-3-7"
       is_visible="true"
       pattern="m -1291.9908,1125.7302 c 0,-2.7598 2.24,-4.9999 5,-4.9999 2.76,0 5,2.2401 5,4.9999 0,2.7599 -2.24,4.9998 -5,4.9998 -2.76,0 -5,-2.2399 -5,-4.9998 z"
       copytype="single_stretched"
       prop_scale="0.13765002"
       scale_y_rel="false"
       spacing="0"
       normal_offset="0"
       tang_offset="0"
       prop_units="false"
       vertical_pattern="false"
       fuse_tolerance="0" />
    <inkscape:path-effect
       effect="skeletal"
       id="path-effect4523-4-4-6-6-2-5-26-1-1-6-14"
       is_visible="true"
       pattern="m -1209.2667,1105.2911 c 0,-2.76 2.24,-5 5,-5 2.76,0 5,2.24 5,5 0,2.76 -2.24,5 -5,5 -2.76,0 -5,-2.24 -5,-5 z"
       copytype="single_stretched"
       prop_scale="0.13765002"
       scale_y_rel="false"
       spacing="0"
       normal_offset="0"
       tang_offset="0"
       prop_units="false"
       vertical_pattern="false"
       fuse_tolerance="0" />
    <inkscape:path-effect
       effect="skeletal"
       id="path-effect4523-4-4-6-6-2-5-26-1-1-4"
       is_visible="true"
       pattern="m -1104.166,1138.3871 c 0,-2.76 2.24,-5 5,-5 2.76,0 5,2.24 5,5 0,2.76 -2.24,5 -5,5 -2.76,0 -5,-2.24 -5,-5 z"
       copytype="single_stretched"
       prop_scale="0.13765002"
       scale_y_rel="false"
       spacing="0"
       normal_offset="0"
       tang_offset="0"
       prop_units="false"
       vertical_pattern="false"
       fuse_tolerance="0" />
    <inkscape:path-effect
       effect="skeletal"
       id="path-effect4523-4-4-6-6-2-5-26-1-1-6-4-8"
       is_visible="true"
       pattern="m -1386.7841,1160.5852 c 0,-2.76 2.24,-5 5,-5 2.76,0 5,2.24 5,5 0,2.76 -2.24,5 -5,5 -2.76,0 -5,-2.24 -5,-5 z"
       copytype="single_stretched"
       prop_scale="0.1152388"
       scale_y_rel="false"
       spacing="0"
       normal_offset="0"
       tang_offset="0"
       prop_units="false"
       vertical_pattern="false"
       fuse_tolerance="0" />
    <inkscape:path-effect
       effect="skeletal"
       id="path-effect4523-4-4-6-6-2-5-26-1-1-3-1"
       is_visible="true"
       pattern="m -1281.6834,1193.6815 c 0,-2.76 2.24,-5 5,-5 2.76,0 5,2.24 5,5 0,2.76 -2.24,5 -5,5 -2.76,0 -5,-2.24 -5,-5 z"
       copytype="single_stretched"
       prop_scale="0.1152388"
       scale_y_rel="false"
       spacing="0"
       normal_offset="0"
       tang_offset="0"
       prop_units="false"
       vertical_pattern="false"
       fuse_tolerance="0" />
    <inkscape:path-effect
       effect="skeletal"
       id="path-effect4523-4-4-6-6-2-5-26-1-1-6-9"
       is_visible="true"
       pattern="m -1198.9593,1173.2423 c 0,-2.76 2.24,-5 5,-5 2.76,0 5,2.24 5,5 0,2.76 -2.24,5 -5,5 -2.76,0 -5,-2.24 -5,-5 z"
       copytype="single_stretched"
       prop_scale="0.1152388"
       scale_y_rel="false"
       spacing="0"
       normal_offset="0"
       tang_offset="0"
       prop_units="false"
       vertical_pattern="false"
       fuse_tolerance="0" />
    <inkscape:path-effect
       effect="skeletal"
       id="path-effect4523-4-4-6-6-2-5-26-1-1-2"
       is_visible="true"
       pattern="m -1093.8586,1206.3386 c 0,-2.76 2.24,-5 5,-5 2.76,0 5,2.24 5,5 0,2.76 -2.24,5 -5,5 -2.76,0 -5,-2.24 -5,-5 z"
       copytype="single_stretched"
       prop_scale="0.1152388"
       scale_y_rel="false"
       spacing="0"
       normal_offset="0"
       tang_offset="0"
       prop_units="false"
       vertical_pattern="false"
       fuse_tolerance="0" />
    <inkscape:path-effect
       effect="skeletal"
       id="path-effect4523-4-4-6-6-2-5-26-1-1-6-6"
       is_visible="true"
       pattern="m -1025.2428,1358.2694 c 0,-2.76 2.24,-5 5,-5 2.76,0 5,2.24 5,5 0,2.76 -2.24,5 -5,5 -2.76,0 -5,-2.24 -5,-5 z"
       copytype="single_stretched"
       prop_scale="0.13488898"
       scale_y_rel="false"
       spacing="0"
       normal_offset="0"
       tang_offset="0"
       prop_units="false"
       vertical_pattern="false"
       fuse_tolerance="0" />
    <inkscape:path-effect
       effect="skeletal"
       id="path-effect4523-4-4-6-6-2-5-26-1-1-6-6-1"
       is_visible="true"
       pattern="m -1020.9511,1491.6492 c 0,-2.76 2.24,-5 5,-5 2.76,0 5,2.24 5,5 0,2.76 -2.24,5 -5,5 -2.76,0 -5,-2.24 -5,-5 z"
       copytype="single_stretched"
       prop_scale="0.13488898"
       scale_y_rel="false"
       spacing="0"
       normal_offset="0"
       tang_offset="0"
       prop_units="false"
       vertical_pattern="false"
       fuse_tolerance="0" />
  </defs>
  <sodipodi:namedview
     id="base"
     pagecolor="#ffffff"
     bordercolor="#666666"
     borderopacity="1.0"
     inkscape:pageopacity="0.0"
     inkscape:pageshadow="2"
     inkscape:zoom="1.4"
     inkscape:cx="192.24496"
     inkscape:cy="102.71145"
     inkscape:document-units="mm"
     inkscape:current-layer="layer1"
     showgrid="false"
     showguides="false"
     scale-x="1"
     inkscape:window-width="1600"
     inkscape:window-height="837"
     inkscape:window-x="-8"
     inkscape:window-y="-8"
     inkscape:window-maximized="1" />
  <metadata
     id="metadata5">
    <rdf:RDF>
      <cc:Work
         rdf:about="">
        <dc:format>image/svg+xml</dc:format>
        <dc:type
           rdf:resource="http://purl.org/dc/dcmitype/StillImage" />
        <dc:title></dc:title>
      </cc:Work>
    </rdf:RDF>
  </metadata>
  <g
     inkscape:label="Laag 1"
     inkscape:groupmode="layer"
     id="layer1"
     transform="translate(0,-208)">
    <path
       style="fill:#000000;stroke:none;stroke-width:0.11713976px;stroke-linecap:butt;stroke-linejoin:miter;stroke-opacity:1"
       d="m 315.6684,63.368368 c -0.0435,-0.155684 2.15804,-0.856635 5.58407,-2.280553 3.51947,-1.46275 7.9693,-3.583867 12.75617,-6.770657 4.80271,-3.197344 8.42929,-6.458217 11.12009,-9.172027 2.60607,-2.62836 4.06872,-4.417561 4.19724,-4.319518 0.10647,0.08121 -1.10169,2.068778 -3.59325,4.885055 -2.54991,2.88225 -6.20309,6.338264 -11.07434,9.582306 -9.71754,6.471455 -18.91195,8.354509 -18.98998,8.075394 z"
       id="path4521-5-0-9-3-6-8-4-7"
       inkscape:connector-curvature="0"
       inkscape:path-effect="#path-effect4523-4-4-6-6-2-5-11-3"
       inkscape:original-d="m 315.6684,63.368368 c 14.63619,-4.09158 26.43625,-13.076039 33.65757,-22.54275" />
    <path
       style="fill:#000000;stroke:none;stroke-width:0.11713976px;stroke-linecap:butt;stroke-linejoin:miter;stroke-opacity:1"
       d="m 314.46943,102.65981 c -0.30417,-0.10959 2.90757,-8.919056 3.25777,-20.190974 0.3502,-11.271919 -2.42152,-20.20642 -2.11272,-20.302188 0.31931,-0.09903 3.64495,8.679152 3.28449,20.338503 -0.36077,11.669621 -4.15688,20.252899 -4.42954,20.154659 z"
       id="path4521-5-0-9-3-6-8-84-94"
       inkscape:connector-curvature="0"
       inkscape:path-effect="#path-effect4523-4-4-6-6-2-5-26-17"
       inkscape:original-d="m 314.46943,102.65981 c 5.15145,-14.297611 4.67198,-29.120961 1.14505,-40.493162" />
    <path
       style="fill:#000000;stroke:none;stroke-width:0.11713976px;stroke-linecap:butt;stroke-linejoin:miter;stroke-opacity:1"
       d="m 347.98492,123.4046 c -0.12567,0.10168 -1.64208,-1.6415 -4.30772,-4.22213 -2.73832,-2.65101 -6.44994,-5.89508 -11.27352,-9.02602 -4.83955,-3.14131 -9.27108,-5.17769 -12.82935,-6.57191 -3.44624,-1.35032 -5.66872,-1.98367 -5.62968,-2.14053 0.0323,-0.12994 2.33604,0.19112 5.90938,1.3618 3.65704,1.1981 8.27827,3.18152 13.18786,6.36724 4.89688,3.17746 8.62766,6.60833 11.22877,9.43057 2.55143,2.76835 3.81919,4.71608 3.71426,4.80098 z"
       id="path4521-5-0-9-3-6-8-86-61"
       inkscape:connector-curvature="0"
       inkscape:path-effect="#path-effect4523-4-4-6-6-2-5-7-57"
       inkscape:original-d="m 347.98492,123.4046 c -9.55947,-11.81421 -22.48624,-19.08472 -34.04026,-21.96059" />
    <path
       style="fill:#000000;stroke:none;stroke-width:0.11713976px;stroke-linecap:butt;stroke-linejoin:miter;stroke-opacity:1"
       d="m 380.30143,63.368358 c -0.078,0.279114 -9.27244,-1.603939 -18.98997,-8.07539 -4.87126,-3.244041 -8.52442,-6.700052 -11.07434,-9.582302 -2.49155,-2.816277 -3.69971,-4.803844 -3.59325,-4.885055 0.12853,-0.09804 1.59118,1.691159 4.19725,4.319518 2.6908,2.71381 6.31737,5.97468 11.12008,9.172023 4.78686,3.186787 9.23669,5.307903 12.75616,6.770652 3.42603,1.423918 5.62759,2.12487 5.58407,2.280554 z"
       id="path4521-5-0-9-3-6-8-4-4-1"
       inkscape:connector-curvature="0"
       inkscape:path-effect="#path-effect4523-4-4-6-6-2-5-11-0-07"
       inkscape:original-d="M 380.30143,63.368358 C 365.66526,59.276778 353.86519,50.292329 346.64388,40.825618" />
    <path
       style="fill:#000000;stroke:none;stroke-width:0.11713976px;stroke-linecap:butt;stroke-linejoin:miter;stroke-opacity:1"
       d="m 381.50042,102.65981 c -0.27266,0.0982 -4.06877,-8.485038 -4.42955,-20.154662 -0.36047,-11.659353 2.96517,-20.437539 3.28448,-20.33851 0.3088,0.09577 -2.46291,9.030273 -2.11271,20.302195 0.35021,11.271921 3.56194,20.081387 3.25778,20.190977 z"
       id="path4521-5-0-9-3-6-8-84-3-42"
       inkscape:connector-curvature="0"
       inkscape:path-effect="#path-effect4523-4-4-6-6-2-5-26-9-8"
       inkscape:original-d="M 381.50042,102.65981 C 376.34896,88.362199 376.82843,73.538838 380.35535,62.166638" />
    <path
       style="fill:#000000;stroke:none;stroke-width:0.11713976px;stroke-linecap:butt;stroke-linejoin:miter;stroke-opacity:1"
       d="m 347.98492,123.4046 c -0.2253,-0.1823 5.149,-7.87645 14.94303,-14.23155 4.90959,-3.18571 9.53082,-5.16914 13.18786,-6.36724 3.57335,-1.17068 5.87704,-1.49174 5.90938,-1.3618 0.039,0.15686 -2.18344,0.79021 -5.62968,2.14053 -3.55827,1.39422 -7.9898,3.4306 -12.82935,6.57191 -9.45936,6.13998 -15.32991,13.45152 -15.58124,13.24815 z"
       id="path4521-5-0-9-3-6-8-86-0-1"
       inkscape:connector-curvature="0"
       inkscape:path-effect="#path-effect4523-4-4-6-6-2-5-7-5-3"
       inkscape:original-d="m 347.98492,123.4046 c 9.55947,-11.81421 22.48625,-19.08472 34.04026,-21.96059" />
    <path
       style="opacity:0.1;fill:#000000;fill-opacity:1;stroke:none;stroke-width:0.20857102px;stroke-linecap:butt;stroke-linejoin:miter;stroke-opacity:1"
       d="m -7.5213826,244.17216 c 0.251653,0.14011 -1.5557225,3.68098 -3.9160964,9.60695 -2.423993,6.0857 -5.124481,14.12632 -6.810791,23.86461 -1.6922,9.77231 -1.826852,18.15416 -1.523116,24.71419 0.294176,6.35357 0.891373,10.28511 0.608237,10.33795 -0.232782,0.0435 -1.398467,-3.78839 -2.077749,-10.22617 -0.695134,-6.58801 -0.783724,-15.24781 0.934565,-25.18214 1.713588,-9.90715 4.710692,-18.11191 7.513377,-24.09556 2.749975,-5.87112 5.0628538,-9.13603 5.2715734,-9.01983 z"
       id="path4521-5-0-9-3-6-8-84-9-1"
       inkscape:connector-curvature="0"
       inkscape:path-effect="#path-effect4523-4-4-6-6-2-5-26-1-1"
       inkscape:original-d="M -7.5213826,244.17216 C -20.320654,267.16167 -22.937592,292.47435 -19.16315,312.69586" />
    <path
       style="opacity:0.1;fill:#000000;fill-opacity:1;stroke:none;stroke-width:0.20857103px;stroke-linecap:butt;stroke-linejoin:miter;stroke-opacity:1"
       d="m 68.376534,222.4378 c -0.04051,0.28516 -3.994061,-0.13169 -10.37235,-0.20912 -6.550201,-0.0795 -15.024397,0.28416 -24.719446,2.20353 -9.728918,1.92607 -17.601179,4.80721 -23.6156203,7.44402 -5.8251478,2.55383 -9.28076742,4.52164 -9.43166853,4.27631 -0.12406409,-0.2017 3.03456833,-2.66441 8.80016823,-5.60791 5.9001546,-3.0122 13.9517826,-6.20143 23.8412956,-8.16127 9.862458,-1.95448 18.596266,-2.10017 25.187061,-1.63056 6.466845,0.46078 10.344155,1.44849 10.31056,1.685 z"
       id="path4521-5-0-9-3-6-8-84-9-1-5"
       inkscape:connector-curvature="0"
       inkscape:path-effect="#path-effect4523-4-4-6-6-2-5-26-1-1-6"
       inkscape:original-d="M 68.376534,222.4378 C 42.325677,218.73752 17.759011,225.37522 0.23744921,236.15254" />
    <path
       style="opacity:0.1;fill:#000000;fill-opacity:1;stroke:none;stroke-width:0.20857103px;stroke-linecap:butt;stroke-linejoin:miter;stroke-opacity:1"
       d="m 63.786624,296.73695 c -0.251653,-0.14011 1.555722,-3.68098 3.916096,-9.60695 2.423993,-6.0857 5.124484,-14.12632 6.810795,-23.86461 1.692203,-9.77231 1.826856,-18.15416 1.523119,-24.71419 -0.294177,-6.35357 -0.891375,-10.2851 -0.608239,-10.33795 0.232782,-0.0434 1.398469,3.78839 2.077751,10.22617 0.695134,6.58801 0.783723,15.24781 -0.934568,25.18214 -1.713589,9.90715 -4.710695,18.11191 -7.51338,24.09556 -2.749976,5.87112 -5.062854,9.13603 -5.271574,9.01983 z"
       id="path4521-5-0-9-3-6-8-84-9-1-8"
       inkscape:connector-curvature="0"
       inkscape:path-effect="#path-effect4523-4-4-6-6-2-5-26-1-1-3"
       inkscape:original-d="m 63.786624,296.73695 c 12.799274,-22.98952 15.416218,-48.3022 11.641772,-68.5237" />
    <path
       style="opacity:0.1;fill:#000000;fill-opacity:1;stroke:none;stroke-width:0.20857103px;stroke-linecap:butt;stroke-linejoin:miter;stroke-opacity:1"
       d="m -12.111289,318.4713 c 0.0405,-0.28516 3.9940612,0.13169 10.3723501,0.20912 6.5502006,0.0795 15.0243979,-0.28417 24.7194469,-2.20353 9.728918,-1.92607 17.601179,-4.80721 23.61562,-7.44403 5.825148,-2.55382 9.280768,-4.52163 9.431669,-4.2763 0.124064,0.2017 -3.034568,2.6644 -8.800168,5.60791 -5.900155,3.01219 -13.951783,6.20143 -23.841296,8.16127 -9.862458,1.95448 -18.5962663,2.10017 -25.1870617,1.63055 -6.4668447,-0.46077 -10.3441543,-1.44848 -10.3105603,-1.68499 z"
       id="path4521-5-0-9-3-6-8-84-9-1-5-9"
       inkscape:connector-curvature="0"
       inkscape:path-effect="#path-effect4523-4-4-6-6-2-5-26-1-1-6-4"
       inkscape:original-d="m -12.111289,318.4713 c 26.050857,3.70027 50.617518,-2.93742 68.139082,-13.71474" />
    <path
       style="opacity:0.1;fill:#000000;fill-opacity:1;stroke:none;stroke-width:0.16756256px;stroke-linecap:butt;stroke-linejoin:miter;stroke-opacity:1"
       d="m 0.83572463,250.3388 c 0.20217397,0.11256 -1.24983954,2.95724 -3.14612383,7.71807 -1.9473943,4.88915 -4.1169226,11.34886 -5.4716783,19.17244 -1.3594884,7.85092 -1.4676687,14.58476 -1.2236545,19.85498 0.2363343,5.10435 0.7161108,8.26288 0.4886439,8.30534 -0.1870131,0.0349 -1.1235044,-3.04354 -1.6692259,-8.21554 -0.558457,-5.2927 -0.629625,-12.24984 0.7508222,-20.23092 1.3766705,-7.95925 3.7844947,-14.55081 6.0361241,-19.35798 2.2092837,-4.71676 4.06741021,-7.33975 4.23509233,-7.24639 z"
       id="path4521-5-0-9-3-6-8-84-9-1-7"
       inkscape:connector-curvature="0"
       inkscape:path-effect="#path-effect4523-4-4-6-6-2-5-26-1-1-5"
       inkscape:original-d="M 0.83572463,250.3388 C -9.4469896,268.80821 -11.549408,289.14399 -8.5170881,305.38963" />
    <path
       style="opacity:0.1;fill:#000000;fill-opacity:1;stroke:none;stroke-width:0.16756256px;stroke-linecap:butt;stroke-linejoin:miter;stroke-opacity:1"
       d="m 61.810867,232.87777 c -0.03254,0.2291 -3.208763,-0.10579 -8.332976,-0.168 -5.262323,-0.0639 -12.070354,0.2283 -19.859197,1.77028 -7.816053,1.54737 -14.140498,3.86204 -18.972402,5.98041 -4.6798283,2.0517 -7.4560166,3.63261 -7.5772481,3.43551 -0.099671,-0.16204 2.4379227,-2.14054 7.0699111,-4.5053 4.740088,-2.41995 11.208634,-4.98213 19.153705,-6.55663 7.923337,-1.5702 14.939935,-1.68724 20.234872,-1.30996 5.195357,0.37018 8.310324,1.16368 8.283335,1.35369 z"
       id="path4521-5-0-9-3-6-8-84-9-1-5-2"
       inkscape:connector-curvature="0"
       inkscape:path-effect="#path-effect4523-4-4-6-6-2-5-26-1-1-6-1"
       inkscape:original-d="m 61.810867,232.87777 c -20.928825,-2.97273 -40.665283,2.35988 -54.7418217,11.0182" />
    <path
       style="opacity:0.1;fill:#000000;fill-opacity:1;stroke:none;stroke-width:0.16756256px;stroke-linecap:butt;stroke-linejoin:miter;stroke-opacity:1"
       d="m 58.12341,292.5685 c -0.202174,-0.11256 1.249844,-2.95724 3.146132,-7.71807 1.947399,-4.88915 4.116928,-11.34885 5.471683,-19.17244 1.359486,-7.85091 1.467663,-14.58476 1.223646,-19.85498 -0.236337,-5.10436 -0.716115,-8.26289 -0.488648,-8.30534 0.187013,-0.0349 1.123506,3.04353 1.66923,8.21554 0.558459,5.2927 0.629631,12.24985 -0.750814,20.23092 -1.376669,7.95925 -3.784495,14.55082 -6.036129,19.35799 -2.209287,4.71676 -4.067418,7.33974 -4.2351,7.24638 z"
       id="path4521-5-0-9-3-6-8-84-9-1-8-9"
       inkscape:connector-curvature="0"
       inkscape:path-effect="#path-effect4523-4-4-6-6-2-5-26-1-1-3-3"
       inkscape:original-d="m 58.12341,292.5685 c 10.282742,-18.4694 12.385138,-38.8052 9.352814,-55.05083" />
    <path
       style="opacity:0.1;fill:#000000;fill-opacity:1;stroke:none;stroke-width:0.16756256px;stroke-linecap:butt;stroke-linejoin:miter;stroke-opacity:1"
       d="m -2.8517221,310.02953 c 0.032541,-0.2291 3.20876283,0.1058 8.3329743,0.168 5.2623238,0.0639 12.0703508,-0.22829 19.8591938,-1.77027 7.816052,-1.54738 14.140499,-3.86204 18.972402,-5.98041 4.679828,-2.0517 7.456017,-3.63261 7.577249,-3.43551 0.09967,0.16203 -2.43793,2.14052 -7.069919,4.50528 -4.740087,2.41995 -11.208632,4.98213 -19.153701,6.55663 -7.923336,1.5702 -14.939929,1.68724 -20.2348654,1.30996 -5.19535502,-0.37018 -8.3103218,-1.16368 -8.2833337,-1.35368 z"
       id="path4521-5-0-9-3-6-8-84-9-1-5-9-8"
       inkscape:connector-curvature="0"
       inkscape:path-effect="#path-effect4523-4-4-6-6-2-5-26-1-1-6-4-7"
       inkscape:original-d="M -2.8517209,310.02952 C 18.077105,313.00227 37.813558,307.66964 51.890092,299.01133" />
    <path
       style="opacity:0.1;fill:#000000;fill-opacity:1;stroke:none;stroke-width:0.13755536px;stroke-linecap:butt;stroke-linejoin:miter;stroke-opacity:1"
       d="m 6.7718406,254.08796 c 0.1659685,0.0924 -1.0260206,2.42765 -2.5827197,6.33591 -1.5986565,4.0136 -3.37966542,9.3165 -4.49180988,15.73903 -1.11602942,6.44497 -1.20483432,11.97291 -1.00451642,16.29934 0.1940132,4.19026 0.58787226,6.78316 0.40114025,6.81801 -0.15352265,0.0287 -0.92230785,-2.4985 -1.37030285,-6.74429 -0.4584501,-4.34489 -0.5168758,-10.05614 0.616359,-16.60796 1.13013484,-6.5339 3.1067657,-11.94504 4.9551748,-15.89134 1.8136464,-3.87208 3.3390215,-6.02534 3.4766748,-5.9487 z"
       id="path4521-5-0-9-3-6-8-84-9-1-39"
       inkscape:connector-curvature="0"
       inkscape:path-effect="#path-effect4523-4-4-6-6-2-5-26-1-1-4"
       inkscape:original-d="m 6.7718406,254.08796 c -8.4412981,15.16189 -10.1672,31.85594 -7.67790623,45.19229" />
    <path
       style="opacity:0.1;fill:#000000;fill-opacity:1;stroke:none;stroke-width:0.13755536px;stroke-linecap:butt;stroke-linejoin:miter;stroke-opacity:1"
       d="m 56.827541,239.75386 c -0.05343,0.37614 -10.6055,-1.16685 -23.143516,1.31534 -6.416353,1.27027 -11.608217,3.17043 -15.574822,4.90944 -3.841765,1.68428 -6.120793,2.98208 -6.220314,2.82028 -0.08182,-0.13302 2.001339,-1.75721 5.803831,-3.69849 3.891232,-1.98659 9.20139,-4.08993 15.723658,-5.38247 6.504425,-1.28901 12.264489,-1.38509 16.611209,-1.07538 4.264971,0.30389 6.82211,0.9553 6.799954,1.11128 z"
       id="path4521-5-0-9-3-6-8-84-9-1-5-6"
       inkscape:connector-curvature="0"
       inkscape:path-effect="#path-effect4523-4-4-6-6-2-5-26-1-1-6-14"
       inkscape:original-d="m 56.827541,239.75386 c -17.180894,-2.44038 -33.382936,1.93727 -44.93865,9.04506" />
    <path
       style="opacity:0.1;fill:#000000;fill-opacity:1;stroke:none;stroke-width:0.13755536px;stroke-linecap:butt;stroke-linejoin:miter;stroke-opacity:1"
       d="m 53.800435,288.75514 c -0.165956,-0.0924 1.026035,-2.42764 2.582734,-6.33591 1.598656,-4.0136 3.379661,-9.3165 4.491805,-15.73903 1.116029,-6.44497 1.204837,-11.97292 1.004518,-16.29935 -0.194014,-4.19026 -0.587878,-6.78316 -0.401159,-6.81802 0.153516,-0.0286 0.922295,2.49851 1.370285,6.7443 0.458446,4.34489 0.516869,10.05614 -0.616365,16.60796 -1.130133,6.5339 -3.106759,11.94504 -4.955162,15.89134 -1.81364,3.87209 -3.339009,6.02535 -3.476656,5.94871 z"
       id="path4521-5-0-9-3-6-8-84-9-1-8-5"
       inkscape:connector-curvature="0"
       inkscape:path-effect="#path-effect4523-4-4-6-6-2-5-26-1-1-3-7"
       inkscape:original-d="m 53.800429,288.75514 c 8.441293,-15.1619 10.167196,-31.85594 7.677898,-45.1923" />
    <path
       style="opacity:0.1;fill:#000000;fill-opacity:1;stroke:none;stroke-width:0.13755536px;stroke-linecap:butt;stroke-linejoin:miter;stroke-opacity:1"
       d="m 3.7447335,303.08922 c 0.026712,-0.18806 2.634135,0.0869 6.8407015,0.13793 4.319945,0.0525 9.90879,-0.1874 16.302804,-1.45325 6.416351,-1.27027 11.608214,-3.17042 15.574817,-4.90944 3.841763,-1.68428 6.120788,-2.98208 6.220306,-2.82029 0.08182,0.13303 -2.001338,1.75721 -5.803828,3.69849 -3.89123,1.98659 -9.201386,4.08993 -15.72365,5.38247 -13.034445,2.58308 -23.4583723,0.29654 -23.4111505,-0.0359 z"
       id="path4521-5-0-9-3-6-8-84-9-1-5-9-7"
       inkscape:connector-curvature="0"
       inkscape:path-effect="#path-effect4523-4-4-6-6-2-5-26-1-1-6-4-2"
       inkscape:original-d="m 3.7447325,303.08923 c 17.1808885,2.44039 33.3829325,-1.93727 44.9386315,-9.04505" />
    <path
       style="opacity:0.1;fill:#000000;fill-opacity:1;stroke:none;stroke-width:0.11515955px;stroke-linecap:butt;stroke-linejoin:miter;stroke-opacity:1"
       d="m 10.692105,256.76802 c 0.277893,0.15472 -4.0969602,7.93738 -5.922697,18.48085 -1.8257369,10.54348 -0.1924719,19.29519 -0.5051311,19.35355 -0.3236648,0.0604 -2.5251438,-8.60031 -0.6311996,-19.5502 1.89599,-10.96172 6.8134117,-18.42095 7.0590277,-18.2842 z"
       id="path4521-5-0-9-3-6-8-84-9-1-82"
       inkscape:connector-curvature="0"
       inkscape:path-effect="#path-effect4523-4-4-6-6-2-5-26-1-1-2"
       inkscape:original-d="m 10.692105,256.76802 c -7.0669336,12.69334 -8.511844,26.66937 -6.4278281,37.8344" />
    <path
       style="opacity:0.1;fill:#000000;fill-opacity:1;stroke:none;stroke-width:0.11515955px;stroke-linecap:butt;stroke-linejoin:miter;stroke-opacity:1"
       d="m 52.598065,244.76771 c -0.04473,0.3149 -8.878783,-0.97687 -19.375442,1.10119 -10.496659,2.07806 -18.07996,6.74213 -18.246596,6.47121 -0.0685,-0.11136 1.675495,-1.47111 4.85889,-3.09633 3.257687,-1.66314 7.70328,-3.42403 13.163635,-4.50613 10.912268,-2.16252 19.639046,-0.24826 19.599513,0.0301 z"
       id="path4521-5-0-9-3-6-8-84-9-1-5-67"
       inkscape:connector-curvature="0"
       inkscape:path-effect="#path-effect4523-4-4-6-6-2-5-26-1-1-6-9"
       inkscape:original-d="m 52.598065,244.76771 c -14.383616,-2.04305 -27.947739,1.62185 -37.622034,7.5724" />
    <path
       style="opacity:0.1;fill:#000000;fill-opacity:1;stroke:none;stroke-width:0.11515955px;stroke-linecap:butt;stroke-linejoin:miter;stroke-opacity:1"
       d="m 50.063811,285.79093 c -0.138947,-0.0774 0.858971,-2.0324 2.162218,-5.30434 1.338374,-3.36014 2.829411,-7.79965 3.760483,-13.17651 0.934325,-5.39565 1.008671,-10.02357 0.840967,-13.6456 -0.162425,-3.50803 -0.492159,-5.67877 -0.33583,-5.70795 0.323664,-0.0604 2.525139,8.60031 0.631194,19.5502 -0.946134,5.4701 -2.600943,10.00024 -4.148406,13.30403 -1.518361,3.24165 -2.795384,5.04433 -2.910626,4.98017 z"
       id="path4521-5-0-9-3-6-8-84-9-1-8-8"
       inkscape:connector-curvature="0"
       inkscape:path-effect="#path-effect4523-4-4-6-6-2-5-26-1-1-3-1"
       inkscape:original-d="m 50.063811,285.79093 c 7.066937,-12.69333 8.511844,-26.66937 6.42784,-37.83439" />
    <path
       style="opacity:0.1;fill:#000000;fill-opacity:1;stroke:none;stroke-width:0.11515955px;stroke-linecap:butt;stroke-linejoin:miter;stroke-opacity:1"
       d="m 8.1578519,297.79124 c 0.044729,-0.3149 8.8787841,0.97689 19.3754441,-1.10117 5.371685,-1.06346 9.718246,-2.65425 13.039034,-4.11013 3.216274,-1.41006 5.124245,-2.49656 5.207563,-2.3611 0.0685,0.11136 -1.675493,1.47111 -4.858888,3.09633 -3.257687,1.66314 -7.703282,3.42404 -13.163638,4.50614 -10.912271,2.16253 -19.639049,0.24826 -19.5995151,-0.0301 z"
       id="path4521-5-0-9-3-6-8-84-9-1-5-9-4"
       inkscape:connector-curvature="0"
       inkscape:path-effect="#path-effect4523-4-4-6-6-2-5-26-1-1-6-4-8"
       inkscape:original-d="m 8.1578519,297.79124 c 14.3836151,2.04308 27.9477531,-1.62185 37.6220331,-7.5724" />
    <path
       style="opacity:0.1;fill:#000000;fill-opacity:1;stroke:none;stroke-width:0.1347962px;stroke-linecap:butt;stroke-linejoin:miter;stroke-opacity:1"
       d="m 9.0743281,272.30568 c 0.026178,-0.1843 2.5813009,0.0851 6.7034909,0.13515 4.233294,0.0514 9.710036,-0.18365 15.975798,-1.4241 6.28765,-1.24479 11.375372,-3.10684 15.262412,-4.81097 3.764703,-1.6505 5.998017,-2.92227 6.095542,-2.76371 0.08018,0.13035 -1.961194,1.72196 -5.687413,3.6243 -3.813178,1.94674 -9.016822,4.0079 -15.408262,5.27452 -12.772999,2.53127 -22.9878424,0.29059 -22.9415679,-0.0352 z"
       id="path4521-5-0-9-3-6-8-84-9-1-5-5"
       inkscape:connector-curvature="0"
       inkscape:path-effect="#path-effect4523-4-4-6-6-2-5-26-1-1-6-6"
       inkscape:original-d="M 9.0743281,272.30568 C 25.910599,274.69712 41.78765,270.40727 53.111565,263.44205" />
    <path
       style="opacity:0.1;fill:#000000;fill-opacity:1;stroke:none;stroke-width:0.1347962px;stroke-linecap:butt;stroke-linejoin:miter;stroke-opacity:1"
       d="m 41.105418,251.26416 c 0.143729,0.11829 -1.416412,2.15966 -3.605022,5.65322 -2.2476,3.58771 -4.897936,8.38622 -7.100569,14.38179 -2.210326,6.01652 -3.268986,11.32984 -3.837435,15.53579 -0.550558,4.07357 -0.62729,6.64246 -0.813435,6.64319 -0.15304,6e-4 -0.449312,-2.57091 -0.133817,-6.74272 0.322858,-4.26918 1.271854,-9.78513 3.517576,-15.90163 2.239578,-6.09976 5.097549,-10.96818 7.574064,-14.44706 2.42994,-3.41345 4.27943,-5.22069 4.398638,-5.12258 z"
       id="path4521-5-0-9-3-6-8-84-9-1-5-5-0"
       inkscape:connector-curvature="0"
       inkscape:path-effect="#path-effect4523-4-4-6-6-2-5-26-1-1-6-6-1"
       inkscape:original-d="M 41.105418,251.26416 C 30.299126,264.39439 25.696789,280.1837 25.748957,293.47815" />
  </g>
</svg>
