<?xml version="1.0" encoding="UTF-8" standalone="no"?>
<!-- Created with Inkscape (http://www.inkscape.org/) -->

<svg
   xmlns:dc="http://purl.org/dc/elements/1.1/"
   xmlns:cc="http://creativecommons.org/ns#"
   xmlns:rdf="http://www.w3.org/1999/02/22-rdf-syntax-ns#"
   xmlns:svg="http://www.w3.org/2000/svg"
   xmlns="http://www.w3.org/2000/svg"
   xmlns:sodipodi="http://sodipodi.sourceforge.net/DTD/sodipodi-0.dtd"
   xmlns:inkscape="http://www.inkscape.org/namespaces/inkscape"
   width="123mm"
   height="171mm"
   viewBox="0 0 123 171"
   version="1.1"
   id="svg8"
   inkscape:version="0.92.1 r15371"
   sodipodi:docname="SpinnenwebRechts.svg"
   inkscape:export-filename="C:\Users\Bobby\CloudStation\School 3\Webruimte\Afbeeldingen\SVG\SpinnenwebRechts.png"
   inkscape:export-xdpi="198"
   inkscape:export-ydpi="198">
  <defs
     id="defs2">
    <inkscape:path-effect
       effect="skeletal"
       id="path-effect6474"
       is_visible="true"
       pattern="m 193.83793,54.047952 c 0,-2.760002 2.24,-5 5,-5 2.76,0 5,2.239998 5,5 0,2.759995 -2.24,5.000003 -5,5.000003 -2.76,0 -5,-2.240008 -5,-5.000003 z"
       copytype="single_stretched"
       prop_scale="0.16841884"
       scale_y_rel="false"
       spacing="0"
       normal_offset="0"
       tang_offset="0"
       prop_units="false"
       vertical_pattern="false"
       fuse_tolerance="0" />
    <inkscape:path-effect
       effect="bspline"
       id="path-effect6472"
       is_visible="true"
       weight="33.333333"
       steps="2"
       helper_size="0"
       apply_no_weight="true"
       apply_with_weight="true"
       only_selected="false" />
    <inkscape:path-effect
       effect="skeletal"
       id="path-effect6444"
       is_visible="true"
       pattern="m 298.00264,114.79675 c 0,-2.76 2.24,-5 5,-5 2.76,0 5,2.24 5,5 0,2.76 -2.24,5 -5,5 -2.76,0 -5,-2.24 -5,-5 z"
       copytype="single_stretched"
       prop_scale="0.14634876"
       scale_y_rel="false"
       spacing="0"
       normal_offset="0"
       tang_offset="0"
       prop_units="false"
       vertical_pattern="false"
       fuse_tolerance="0" />
    <inkscape:path-effect
       effect="bspline"
       id="path-effect6442"
       is_visible="true"
       weight="33.333333"
       steps="2"
       helper_size="0"
       apply_no_weight="true"
       apply_with_weight="true"
       only_selected="false" />
    <inkscape:path-effect
       effect="skeletal"
       id="path-effect6390"
       is_visible="true"
       pattern="m 321.58861,7.8249325 c 0,-2.7599985 2.24,-4.9999973 5,-4.9999973 2.76,0 5,2.2399988 5,4.9999973 0,2.7599985 -2.24,4.9999985 -5,4.9999985 -2.76,0 -5,-2.24 -5,-4.9999985 z"
       copytype="single_stretched"
       prop_scale="0.16371529"
       scale_y_rel="false"
       spacing="0"
       normal_offset="0"
       tang_offset="0"
       prop_units="false"
       vertical_pattern="false"
       fuse_tolerance="0" />
    <inkscape:path-effect
       effect="bspline"
       id="path-effect6388"
       is_visible="true"
       weight="33.333333"
       steps="2"
       helper_size="0"
       apply_no_weight="true"
       apply_with_weight="true"
       only_selected="false" />
    <inkscape:path-effect
       effect="skeletal"
       id="path-effect6372"
       is_visible="true"
       pattern="m 316.35484,76.881002 c 0,-2.759994 2.24,-4.999979 5,-4.999979 2.76,0 5,2.239985 5,4.999979 0,2.759995 -2.24,4.999983 -5,4.999983 -2.76,0 -5,-2.239988 -5,-4.999983 z"
       copytype="single_stretched"
       prop_scale="0.14100744"
       scale_y_rel="false"
       spacing="0"
       normal_offset="0"
       tang_offset="0"
       prop_units="false"
       vertical_pattern="false"
       fuse_tolerance="0" />
    <inkscape:path-effect
       effect="bspline"
       id="path-effect6370"
       is_visible="true"
       weight="33.333333"
       steps="2"
       helper_size="0"
       apply_no_weight="true"
       apply_with_weight="true"
       only_selected="false" />
    <inkscape:path-effect
       effect="skeletal"
       id="path-effect6310"
       is_visible="true"
       pattern="m 169.19353,-18.721178 c 0,-2.76 2.24,-5.000001 5,-5.000001 2.76,0 5,2.240001 5,5.000001 0,2.76 -2.24,5 -5,5 -2.76,0 -5,-2.24 -5,-5 z"
       copytype="single_stretched"
       prop_scale="0.19666189"
       scale_y_rel="false"
       spacing="0"
       normal_offset="0"
       tang_offset="0"
       prop_units="false"
       vertical_pattern="false"
       fuse_tolerance="0" />
    <inkscape:path-effect
       effect="bspline"
       id="path-effect6308"
       is_visible="true"
       weight="33.333333"
       steps="2"
       helper_size="0"
       apply_no_weight="true"
       apply_with_weight="true"
       only_selected="false" />
    <inkscape:path-effect
       effect="skeletal"
       id="path-effect6211"
       is_visible="true"
       pattern="m 347.72957,-28.877425 c 0,-2.760001 2.24,-5.000002 5,-5.000002 2.76,0 5,2.240001 5,5.000002 0,2.760002 -2.24,5.000006 -5,5.000006 -2.76,0 -5,-2.240004 -5,-5.000006 z"
       copytype="single_stretched"
       prop_scale="0.12651853"
       scale_y_rel="false"
       spacing="0"
       normal_offset="0"
       tang_offset="0"
       prop_units="false"
       vertical_pattern="false"
       fuse_tolerance="0" />
    <inkscape:path-effect
       effect="bspline"
       id="path-effect6209"
       is_visible="true"
       weight="33.333333"
       steps="2"
       helper_size="0"
       apply_no_weight="true"
       apply_with_weight="true"
       only_selected="false" />
    <inkscape:path-effect
       effect="skeletal"
       id="path-effect4523-4-4-6-6-2-5-11"
       is_visible="true"
       pattern="m -793.78151,835.96527 c 0,-2.76 2.24,-5 5,-5 2.76,0 5,2.24 5,5 0,2.76 -2.24,5 -5,5 -2.76,0 -5,-2.24 -5,-5 z"
       copytype="single_stretched"
       prop_scale="0.074446276"
       scale_y_rel="false"
       spacing="0"
       normal_offset="0"
       tang_offset="0"
       prop_units="false"
       vertical_pattern="false"
       fuse_tolerance="0" />
    <inkscape:path-effect
       effect="skeletal"
       id="path-effect4523-4-4-6-6-2-5-26"
       is_visible="true"
       pattern="m -824.25021,888.88471 c 0,-2.76 2.24,-5 5,-5 2.76,0 5,2.24 5,5 0,2.76 -2.24,5 -5,5 -2.76,0 -5,-2.24 -5,-5 z"
       copytype="single_stretched"
       prop_scale="0.074446276"
       scale_y_rel="false"
       spacing="0"
       normal_offset="0"
       tang_offset="0"
       prop_units="false"
       vertical_pattern="false"
       fuse_tolerance="0" />
    <inkscape:path-effect
       effect="skeletal"
       id="path-effect4523-4-4-6-6-2-5-7"
       is_visible="true"
       pattern="m -796.45421,941.26954 c 0,-2.76003 2.24,-5.00003 5,-5.00003 2.76,0 5,2.24 5,5.00003 0,2.75995 -2.24,4.99993 -5,4.99993 -2.76,0 -5,-2.23998 -5,-4.99993 z"
       copytype="single_stretched"
       prop_scale="0.074446276"
       scale_y_rel="false"
       spacing="0"
       normal_offset="0"
       tang_offset="0"
       prop_units="false"
       vertical_pattern="false"
       fuse_tolerance="0" />
    <inkscape:path-effect
       effect="skeletal"
       id="path-effect4523-4-4-6-6-2-5-7-5"
       is_visible="true"
       pattern="m -1006.9706,1150.6853 c 0,-2.76 2.2401,-5 5.0003,-5 2.76004,0 5.00002,2.24 5.00002,5 0,2.76 -2.23998,5 -5.00002,5 -2.7602,0 -5.0003,-2.24 -5.0003,-5 z"
       copytype="single_stretched"
       prop_scale="0.074446276"
       scale_y_rel="false"
       spacing="0"
       normal_offset="0"
       tang_offset="0"
       prop_units="false"
       vertical_pattern="false"
       fuse_tolerance="0" />
    <inkscape:path-effect
       effect="skeletal"
       id="path-effect4523-4-4-6-6-2-5-26-9"
       is_visible="true"
       pattern="m -1034.7678,1098.3005 c 0,-2.76 2.24,-5 5,-5 2.76,0 5.0002,2.24 5.0002,5 0,2.76 -2.2402,5 -5.0002,5 -2.76,0 -5,-2.24 -5,-5 z"
       copytype="single_stretched"
       prop_scale="0.074446276"
       scale_y_rel="false"
       spacing="0"
       normal_offset="0"
       tang_offset="0"
       prop_units="false"
       vertical_pattern="false"
       fuse_tolerance="0" />
    <inkscape:path-effect
       effect="skeletal"
       id="path-effect4523-4-4-6-6-2-5-11-0"
       is_visible="true"
       pattern="m -1004.2978,1045.3811 c 0,-2.76 2.2402,-5 5.00024,-5 2.76005,0 5.00003,2.24 5.00003,5 0,2.76 -2.23998,5 -5.00003,5 -2.76004,0 -5.00024,-2.24 -5.00024,-5 z"
       copytype="single_stretched"
       prop_scale="0.074446276"
       scale_y_rel="false"
       spacing="0"
       normal_offset="0"
       tang_offset="0"
       prop_units="false"
       vertical_pattern="false"
       fuse_tolerance="0" />
    <inkscape:path-effect
       effect="skeletal"
       id="path-effect4523-4-4-6-6-2-5-7-5-9"
       is_visible="true"
       pattern="m -958.69207,1285.0515 c 0,-2.76 2.24001,-5 5.00001,-5 2.76,0 5,2.24 5,5 0,2.76 -2.24,5 -5,5 -2.76,0 -5.00001,-2.24 -5.00001,-5 z"
       copytype="single_stretched"
       prop_scale="0.10673012"
       scale_y_rel="false"
       spacing="0"
       normal_offset="0"
       tang_offset="0"
       prop_units="false"
       vertical_pattern="false"
       fuse_tolerance="0" />
    <inkscape:path-effect
       effect="skeletal"
       id="path-effect4523-4-4-6-6-2-5-26-9-1"
       is_visible="true"
       pattern="m -986.48808,1232.6667 c 0,-2.76 2.23998,-5 5.00003,-5 2.76002,0 5,2.24 5,5 0,2.76 -2.23998,5 -5,5 -2.76005,0 -5.00003,-2.24 -5.00003,-5 z"
       copytype="single_stretched"
       prop_scale="0.10673012"
       scale_y_rel="false"
       spacing="0"
       normal_offset="0"
       tang_offset="0"
       prop_units="false"
       vertical_pattern="false"
       fuse_tolerance="0" />
    <inkscape:path-effect
       effect="skeletal"
       id="path-effect4523-4-4-6-6-2-5-11-0-0"
       is_visible="true"
       pattern="m -956.01936,1179.7473 c 0,-2.76 2.24,-5 5,-5 2.76,0 5,2.24 5,5 0,2.76 -2.24,5 -5,5 -2.76,0 -5,-2.24 -5,-5 z"
       copytype="single_stretched"
       prop_scale="0.10673012"
       scale_y_rel="false"
       spacing="0"
       normal_offset="0"
       tang_offset="0"
       prop_units="false"
       vertical_pattern="false"
       fuse_tolerance="0" />
    <inkscape:path-effect
       effect="skeletal"
       id="path-effect4523-4-4-6-6-2-5-7-9"
       is_visible="true"
       pattern="m -748.17597,1075.6338 c 0,-2.76 2.24,-5 5,-5 2.76,0 5,2.24 5,5 0,2.76 -2.24,5 -5,5 -2.76,0 -5,-2.24 -5,-5 z"
       copytype="single_stretched"
       prop_scale="0.10673012"
       scale_y_rel="false"
       spacing="0"
       normal_offset="0"
       tang_offset="0"
       prop_units="false"
       vertical_pattern="false"
       fuse_tolerance="0" />
    <inkscape:path-effect
       effect="skeletal"
       id="path-effect4523-4-4-6-6-2-5-26-6"
       is_visible="true"
       pattern="m -775.97197,1023.249 c 0,-2.76 2.24,-5 5,-5 2.76,0 5,2.24 5,5 0,2.76 -2.24,5 -5,5 -2.76,0 -5,-2.24 -5,-5 z"
       copytype="single_stretched"
       prop_scale="0.10673012"
       scale_y_rel="false"
       spacing="0"
       normal_offset="0"
       tang_offset="0"
       prop_units="false"
       vertical_pattern="false"
       fuse_tolerance="0" />
    <inkscape:path-effect
       effect="skeletal"
       id="path-effect4523-4-4-6-6-2-5-11-1"
       is_visible="true"
       pattern="m -745.50327,970.33122 c 0,-2.75985 2.24,-4.99983 5,-4.99983 2.76,0 5,2.23998 5,4.99983 0,2.75982 -2.24,4.9997 -5,4.9997 -2.76,0 -5,-2.23988 -5,-4.9997 z"
       copytype="single_stretched"
       prop_scale="0.10673012"
       scale_y_rel="false"
       spacing="0"
       normal_offset="0"
       tang_offset="0"
       prop_units="false"
       vertical_pattern="false"
       fuse_tolerance="0" />
    <inkscape:path-effect
       effect="skeletal"
       id="path-effect4523-4-4-6-6-2-5-7-5-1"
       is_visible="true"
       pattern="m -970.45188,1299.4839 c 0,-2.76 2.24005,-5 5,-5 2.76005,0 5.00003,2.24 5.00003,5 0,2.76 -2.23998,5 -5.00003,5 -2.75995,0 -5,-2.24 -5,-5 z"
       copytype="single_stretched"
       prop_scale="0.13515919"
       scale_y_rel="false"
       spacing="0"
       normal_offset="0"
       tang_offset="0"
       prop_units="false"
       vertical_pattern="false"
       fuse_tolerance="0" />
    <inkscape:path-effect
       effect="skeletal"
       id="path-effect4523-4-4-6-6-2-5-26-9-11"
       is_visible="true"
       pattern="m -998.24782,1247.0991 c 0,-2.76 2.23998,-5 4.99993,-5 2.76005,0 5,2.24 5,5 0,2.76 -2.23995,5 -5,5 -2.75995,0 -4.99993,-2.24 -4.99993,-5 z"
       copytype="single_stretched"
       prop_scale="0.13515919"
       scale_y_rel="false"
       spacing="0"
       normal_offset="0"
       tang_offset="0"
       prop_units="false"
       vertical_pattern="false"
       fuse_tolerance="0" />
    <inkscape:path-effect
       effect="skeletal"
       id="path-effect4523-4-4-6-6-2-5-11-0-5"
       is_visible="true"
       pattern="m -967.77913,1194.1797 c 0,-2.76 2.23995,-5 5,-5 2.75995,0 4.99997,2.24 4.99997,5 0,2.76 -2.24002,5 -4.99997,5 -2.76005,0 -5,-2.24 -5,-5 z"
       copytype="single_stretched"
       prop_scale="0.13515919"
       scale_y_rel="false"
       spacing="0"
       normal_offset="0"
       tang_offset="0"
       prop_units="false"
       vertical_pattern="false"
       fuse_tolerance="0" />
    <inkscape:path-effect
       effect="skeletal"
       id="path-effect4523-4-4-6-6-2-5-7-0"
       is_visible="true"
       pattern="m -759.93584,1090.0663 c 0,-2.76 2.24,-5 5,-5 2.76,0 5,2.24 5,5 0,2.76 -2.24,5 -5,5 -2.76,0 -5,-2.24 -5,-5 z"
       copytype="single_stretched"
       prop_scale="0.13515919"
       scale_y_rel="false"
       spacing="0"
       normal_offset="0"
       tang_offset="0"
       prop_units="false"
       vertical_pattern="false"
       fuse_tolerance="0" />
    <inkscape:path-effect
       effect="skeletal"
       id="path-effect4523-4-4-6-6-2-5-26-67"
       is_visible="true"
       pattern="m -787.73184,1037.6816 c 0,-2.76 2.24,-5 5,-5 2.76,0 5,2.24 5,5 0,2.76 -2.24,5 -5,5 -2.76,0 -5,-2.24 -5,-5 z"
       copytype="single_stretched"
       prop_scale="0.13515919"
       scale_y_rel="false"
       spacing="0"
       normal_offset="0"
       tang_offset="0"
       prop_units="false"
       vertical_pattern="false"
       fuse_tolerance="0" />
    <inkscape:path-effect
       effect="skeletal"
       id="path-effect4523-4-4-6-6-2-5-11-8"
       is_visible="true"
       pattern="m -757.26314,984.76307 c 0,-2.75982 2.24,-4.9997 5,-4.9997 2.76,0 5,2.23988 5,4.9997 0,2.75985 -2.24,4.99973 -5,4.99973 -2.76,0 -5,-2.23988 -5,-4.99973 z"
       copytype="single_stretched"
       prop_scale="0.13515919"
       scale_y_rel="false"
       spacing="0"
       normal_offset="0"
       tang_offset="0"
       prop_units="false"
       vertical_pattern="false"
       fuse_tolerance="0" />
    <inkscape:path-effect
       effect="skeletal"
       id="path-effect4523-4-4-6-6-2-5-7-5-2"
       is_visible="true"
       pattern="m -934.19386,1257.1993 c 0,-2.76 2.24,-5 5,-5 2.76,0 5,2.24 5,5 0,2.76 -2.24,5 -5,5 -2.76,0 -5,-2.24 -5,-5 z"
       copytype="single_stretched"
       prop_scale="0.052819355"
       scale_y_rel="false"
       spacing="0"
       normal_offset="0"
       tang_offset="0"
       prop_units="false"
       vertical_pattern="false"
       fuse_tolerance="0" />
    <inkscape:path-effect
       effect="skeletal"
       id="path-effect4523-4-4-6-6-2-5-26-9-3"
       is_visible="true"
       pattern="m -961.98936,1204.8145 c 0,-2.76 2.23995,-5 4.9997,-5 2.7598,0 4.9998,2.24 4.9998,5 0,2.76 -2.24,5 -4.9998,5 -2.75975,0 -4.9997,-2.24 -4.9997,-5 z"
       copytype="single_stretched"
       prop_scale="0.052819355"
       scale_y_rel="false"
       spacing="0"
       normal_offset="0"
       tang_offset="0"
       prop_units="false"
       vertical_pattern="false"
       fuse_tolerance="0" />
    <inkscape:path-effect
       effect="skeletal"
       id="path-effect4523-4-4-6-6-2-5-11-0-7"
       is_visible="true"
       pattern="m -931.52116,1151.8951 c 0,-2.76 2.24,-5 5,-5 2.76,0 5,2.24 5,5 0,2.76 -2.24,5 -5,5 -2.76,0 -5,-2.24 -5,-5 z"
       copytype="single_stretched"
       prop_scale="0.052819355"
       scale_y_rel="false"
       spacing="0"
       normal_offset="0"
       tang_offset="0"
       prop_units="false"
       vertical_pattern="false"
       fuse_tolerance="0" />
    <inkscape:path-effect
       effect="skeletal"
       id="path-effect4523-4-4-6-6-2-5-7-3"
       is_visible="true"
       pattern="m -723.67784,1047.7817 c 0,-2.76 2.24,-5 5,-5 2.76,0 5,2.24 5,5 0,2.76 -2.24,5 -5,5 -2.76,0 -5,-2.24 -5,-5 z"
       copytype="single_stretched"
       prop_scale="0.052819355"
       scale_y_rel="false"
       spacing="0"
       normal_offset="0"
       tang_offset="0"
       prop_units="false"
       vertical_pattern="false"
       fuse_tolerance="0" />
    <inkscape:path-effect
       effect="skeletal"
       id="path-effect4523-4-4-6-6-2-5-26-8"
       is_visible="true"
       pattern="m -751.47384,995.39717 c 0,-2.75985 2.24,-4.9997 5,-4.9997 2.76,0 5,2.23985 5,4.9997 0,2.75985 -2.24,4.99973 -5,4.99973 -2.76,0 -5,-2.23988 -5,-4.99973 z"
       copytype="single_stretched"
       prop_scale="0.052819355"
       scale_y_rel="false"
       spacing="0"
       normal_offset="0"
       tang_offset="0"
       prop_units="false"
       vertical_pattern="false"
       fuse_tolerance="0" />
    <inkscape:path-effect
       effect="skeletal"
       id="path-effect4523-4-4-6-6-2-5-11-82"
       is_visible="true"
       pattern="m -721.00514,942.47888 c 0,-2.75997 2.24,-4.99997 5,-4.99997 2.76,0 5,2.24 5,4.99997 0,2.76005 -2.24,5.00003 -5,5.00003 -2.76,0 -5,-2.23998 -5,-5.00003 z"
       copytype="single_stretched"
       prop_scale="0.052819355"
       scale_y_rel="false"
       spacing="0"
       normal_offset="0"
       tang_offset="0"
       prop_units="false"
       vertical_pattern="false"
       fuse_tolerance="0" />
    <inkscape:path-effect
       effect="skeletal"
       id="path-effect4523-4-4-6-6-2-5-7-5-29"
       is_visible="true"
       pattern="m -981.67715,1312.3129 c 0,-2.76 2.23998,-5 5,-5 2.75995,0 5.00003,2.24 5.00003,5 0,2.76 -2.24008,5 -5.00003,5 -2.76002,0 -5,-2.24 -5,-5 z"
       copytype="single_stretched"
       prop_scale="0.15973347"
       scale_y_rel="false"
       spacing="0"
       normal_offset="0"
       tang_offset="0"
       prop_units="false"
       vertical_pattern="false"
       fuse_tolerance="0" />
    <inkscape:path-effect
       effect="skeletal"
       id="path-effect4523-4-4-6-6-2-5-26-9-34"
       is_visible="true"
       pattern="m -1009.4737,1259.9281 c 0,-2.76 2.2402,-5 5.0003,-5 2.7602,0 5.00027,2.24 5.00027,5 0,2.76 -2.24007,5 -5.00027,5 -2.7601,0 -5.0003,-2.24 -5.0003,-5 z"
       copytype="single_stretched"
       prop_scale="0.15973347"
       scale_y_rel="false"
       spacing="0"
       normal_offset="0"
       tang_offset="0"
       prop_units="false"
       vertical_pattern="false"
       fuse_tolerance="0" />
    <inkscape:path-effect
       effect="skeletal"
       id="path-effect4523-4-4-6-6-2-5-11-0-4"
       is_visible="true"
       pattern="m -979.0045,1207.0087 c 0,-2.76 2.24008,-5 5,-5 2.76005,0 5.00003,2.24 5.00003,5 0,2.76 -2.23998,5 -5.00003,5 -2.75992,0 -5,-2.24 -5,-5 z"
       copytype="single_stretched"
       prop_scale="0.15973347"
       scale_y_rel="false"
       spacing="0"
       normal_offset="0"
       tang_offset="0"
       prop_units="false"
       vertical_pattern="false"
       fuse_tolerance="0" />
    <inkscape:path-effect
       effect="skeletal"
       id="path-effect4523-4-4-6-6-2-5-7-8"
       is_visible="true"
       pattern="m -771.16114,1102.8953 c 0,-2.76 2.24,-5 5,-5 2.76,0 5,2.24 5,5 0,2.76 -2.24,5 -5,5 -2.76,0 -5,-2.24 -5,-5 z"
       copytype="single_stretched"
       prop_scale="0.15973347"
       scale_y_rel="false"
       spacing="0"
       normal_offset="0"
       tang_offset="0"
       prop_units="false"
       vertical_pattern="false"
       fuse_tolerance="0" />
    <inkscape:path-effect
       effect="skeletal"
       id="path-effect4523-4-4-6-6-2-5-26-1"
       is_visible="true"
       pattern="m -798.95714,1050.5105 c 0,-2.76 2.24,-5 5,-5 2.76,0 5,2.24 5,5 0,2.76 -2.24,5 -5,5 -2.76,0 -5,-2.24 -5,-5 z"
       copytype="single_stretched"
       prop_scale="0.15973347"
       scale_y_rel="false"
       spacing="0"
       normal_offset="0"
       tang_offset="0"
       prop_units="false"
       vertical_pattern="false"
       fuse_tolerance="0" />
    <inkscape:path-effect
       effect="skeletal"
       id="path-effect4523-4-4-6-6-2-5-11-19"
       is_visible="true"
       pattern="m -768.48844,997.59125 c 0,-2.75985 2.24,-4.9997 5,-4.9997 2.76,0 5,2.23985 5,4.9997 0,2.75985 -2.24,4.99985 -5,4.99985 -2.76,0 -5,-2.24 -5,-4.99985 z"
       copytype="single_stretched"
       prop_scale="0.15973347"
       scale_y_rel="false"
       spacing="0"
       normal_offset="0"
       tang_offset="0"
       prop_units="false"
       vertical_pattern="false"
       fuse_tolerance="0" />
  </defs>
  <sodipodi:namedview
     id="base"
     pagecolor="#ffffff"
     bordercolor="#666666"
     borderopacity="1.0"
     inkscape:pageopacity="0.0"
     inkscape:pageshadow="2"
     inkscape:zoom="0.9899495"
     inkscape:cx="109.62633"
     inkscape:cy="515.21542"
     inkscape:document-units="mm"
     inkscape:current-layer="layer1"
     showgrid="false"
     showguides="false"
     scale-x="1"
     inkscape:window-width="1600"
     inkscape:window-height="837"
     inkscape:window-x="-8"
     inkscape:window-y="-8"
     inkscape:window-maximized="1"
     inkscape:pagecheckerboard="false" />
  <metadata
     id="metadata5">
    <rdf:RDF>
      <cc:Work
         rdf:about="">
        <dc:format>image/svg+xml</dc:format>
        <dc:type
           rdf:resource="http://purl.org/dc/dcmitype/StillImage" />
        <dc:title></dc:title>
      </cc:Work>
    </rdf:RDF>
  </metadata>
  <g
     inkscape:label="Laag 1"
     inkscape:groupmode="layer"
     id="layer1"
     transform="translate(0,-126)">
    <path
       style="opacity:0.1;fill:#000000;fill-opacity:1;stroke:none;stroke-width:0.07439508px;stroke-linecap:butt;stroke-linejoin:miter;stroke-opacity:1"
       d="m 129.42595,150.57891 c 0.0898,0.18479 -5.36081,2.79577 -10.68434,7.74505 -5.32354,4.94929 -8.16082,10.25199 -8.34219,10.15544 -0.20246,-0.10778 2.34079,-5.59018 7.83474,-10.70108 5.50395,-5.12021 11.11818,-7.35083 11.19179,-7.19941 z"
       id="path4521-5-0-9-3-6-8-4"
       inkscape:connector-curvature="0"
       inkscape:path-effect="#path-effect4523-4-4-6-6-2-5-11"
       inkscape:original-d="m 129.42595,150.57891 c -8.96327,4.3577 -15.5033,11.2821 -19.02653,17.90048" />
    <path
       style="opacity:0.1;fill:#000000;fill-opacity:1;stroke:none;stroke-width:0.07439508px;stroke-linecap:butt;stroke-linejoin:miter;stroke-opacity:1"
       d="m 125.4573,126.85051 c 0.20245,0.0351 -0.80569,5.71394 0.32939,12.53274 1.13509,6.81881 3.9974,11.80734 3.81918,11.9096 -0.18449,0.10587 -3.37389,-4.70601 -4.55405,-11.78719 -1.18144,-7.08884 0.22654,-12.68616 0.40548,-12.65515 z"
       id="path4521-5-0-9-3-6-8-84"
       inkscape:connector-curvature="0"
       inkscape:path-effect="#path-effect4523-4-4-6-6-2-5-26"
       inkscape:original-d="m 125.4573,126.85051 c -1.60258,9.2475 0.49675,18.07829 4.14857,24.44234" />
    <path
       style="opacity:0.1;fill:#000000;fill-opacity:1;stroke:none;stroke-width:0.07439508px;stroke-linecap:butt;stroke-linejoin:miter;stroke-opacity:1"
       d="m 101.2968,118.76256 c 0.12523,-0.1629 4.90307,3.52172 11.76086,5.9529 6.85779,2.43118 12.89137,2.59083 12.8855,2.79622 -0.006,0.19653 -6.04934,0.41796 -13.13446,-2.09399 -7.08421,-2.51162 -11.63437,-6.49583 -11.5119,-6.65513 z"
       id="path4521-5-0-9-3-6-8-86"
       inkscape:connector-curvature="0"
       inkscape:path-effect="#path-effect4523-4-4-6-6-2-5-7"
       inkscape:original-d="m 101.2968,118.76256 c 7.6031,5.84491 16.83349,8.52604 24.64636,8.74912" />
    <path
       style="opacity:0.1;fill:#000000;fill-opacity:1;stroke:none;stroke-width:0.07439508px;stroke-linecap:butt;stroke-linejoin:miter;stroke-opacity:1"
       d="m 87.663265,158.98256 c 0.0093,-0.16816 6.049694,-0.28249 13.105535,2.31038 7.04306,2.58816 11.50865,6.66005 11.36366,6.83772 -0.12991,0.15919 -4.79717,-3.63324 -11.62057,-6.13827 -6.823361,-2.50503 -12.859999,-2.80467 -12.848625,-3.00983 z"
       id="path4521-5-0-9-3-6-8-4-4"
       inkscape:connector-curvature="0"
       inkscape:path-effect="#path-effect4523-4-4-6-6-2-5-11-0"
       inkscape:original-d="m 87.663265,158.98256 c 9.951062,0.5517 18.660275,4.40757 24.469195,9.1481" />
    <path
       style="opacity:0.1;fill:#000000;fill-opacity:1;stroke:none;stroke-width:0.07439508px;stroke-linecap:butt;stroke-linejoin:miter;stroke-opacity:1"
       d="m 82.145222,135.56594 c 0.153022,-0.0978 3.616288,4.5192 5.268679,11.51311 1.650607,6.98637 0.570745,12.65776 0.359598,12.63149 -0.203899,-0.0254 0.506069,-5.73314 -1.084623,-12.46012 -1.590692,-6.72698 -4.716781,-11.57382 -4.543654,-11.68448 z"
       id="path4521-5-0-9-3-6-8-84-3"
       inkscape:connector-curvature="0"
       inkscape:path-effect="#path-effect4523-4-4-6-6-2-5-26-9"
       inkscape:original-d="m 82.145222,135.56594 c 5.054619,7.90791 6.534314,16.86338 5.628278,24.14459" />
    <path
       style="opacity:0.1;fill:#000000;fill-opacity:1;stroke:none;stroke-width:0.07439508px;stroke-linecap:butt;stroke-linejoin:miter;stroke-opacity:1"
       d="m 101.2968,118.76256 c 0.17453,0.0995 -2.480396,5.53365 -8.041995,10.59003 -5.56198,5.05673 -11.220707,7.19005 -11.301894,7.01099 -0.08485,-0.18713 5.41711,-2.66795 10.800698,-7.56228 5.3839,-4.8946 8.364701,-10.14052 8.543191,-10.03874 z"
       id="path4521-5-0-9-3-6-8-86-0"
       inkscape:connector-curvature="0"
       inkscape:path-effect="#path-effect4523-4-4-6-6-2-5-7-5"
       inkscape:original-d="m 101.2968,118.76256 c -4.750595,8.33078 -12.225476,14.37341 -19.343883,17.60102" />
    <path
       style="opacity:0.1;fill:#000000;fill-opacity:1;stroke:none;stroke-width:0.10665672px;stroke-linecap:butt;stroke-linejoin:miter;stroke-opacity:1"
       d="m 139.41391,154.3596 c 0.12879,0.26491 -7.68555,4.00816 -15.31766,11.10372 -3.91166,3.63666 -6.72569,7.12068 -8.78115,9.99863 -1.985,2.77928 -3.04864,4.62996 -3.17865,4.56075 -0.10749,-0.0572 0.69835,-2.04902 2.55367,-4.98102 1.90307,-3.00744 4.7166,-6.67477 8.67866,-10.36059 7.89076,-7.3406 15.9396,-10.53855 16.04513,-10.32149 z"
       id="path4521-5-0-9-3-6-8-4-2"
       inkscape:connector-curvature="0"
       inkscape:path-effect="#path-effect4523-4-4-6-6-2-5-11-1"
       inkscape:original-d="m 139.41391,154.35961 c -12.85023,6.24745 -22.22636,16.17462 -27.27745,25.66309" />
    <path
       style="opacity:0.1;fill:#000000;fill-opacity:1;stroke:none;stroke-width:0.10665672px;stroke-linecap:butt;stroke-linejoin:miter;stroke-opacity:1"
       d="m 133.72423,120.34129 c 0.29025,0.0503 -1.15508,8.19181 0.47224,17.96762 1.62732,9.77581 5.73088,16.92764 5.47538,17.07425 -0.10503,0.0603 -1.31455,-1.5926 -2.72917,-4.58547 -1.44764,-3.06272 -2.95222,-7.22789 -3.79976,-12.31329 -1.69378,-10.16294 0.32477,-18.18757 0.58131,-18.14311 z"
       id="path4521-5-0-9-3-6-8-84-4"
       inkscape:connector-curvature="0"
       inkscape:path-effect="#path-effect4523-4-4-6-6-2-5-26-6"
       inkscape:original-d="m 133.72423,120.34129 c -2.29754,13.25774 0.71218,25.91802 5.94762,35.04187" />
    <path
       style="opacity:0.1;fill:#000000;fill-opacity:1;stroke:none;stroke-width:0.10665672px;stroke-linecap:butt;stroke-linejoin:miter;stroke-opacity:1"
       d="m 99.086463,108.74598 c 0.179536,-0.23354 7.029297,5.04893 16.860987,8.5344 9.83169,3.48547 18.48174,3.71436 18.47334,4.00881 -0.008,0.28176 -8.67266,0.59921 -18.83026,-3.00205 -10.1563,-3.6008 -16.67964,-9.31277 -16.504067,-9.54116 z"
       id="path4521-5-0-9-3-6-8-86-7"
       inkscape:connector-curvature="0"
       inkscape:path-effect="#path-effect4523-4-4-6-6-2-5-7-9"
       inkscape:original-d="m 99.086463,108.74598 c 10.900197,8.37957 24.133387,12.22339 35.334317,12.54321" />
    <path
       style="opacity:0.1;fill:#000000;fill-opacity:1;stroke:none;stroke-width:0.10665672px;stroke-linecap:butt;stroke-linejoin:miter;stroke-opacity:1"
       d="m 79.540716,166.40752 c 0.01336,-0.24101 8.672633,-0.40511 18.788422,3.31215 5.079292,1.86649 9.092292,4.16017 12.010452,6.19745 2.84496,1.98618 4.35846,3.51128 4.28147,3.60563 -0.0931,0.11411 -1.7898,-1.18112 -4.69527,-2.97631 -3.00862,-1.85892 -6.95118,-3.98335 -11.964965,-5.824 -9.782488,-3.59133 -18.436416,-4.0208 -18.420109,-4.31492 z"
       id="path4521-5-0-9-3-6-8-4-4-3"
       inkscape:connector-curvature="0"
       inkscape:path-effect="#path-effect4523-4-4-6-6-2-5-11-0-0"
       inkscape:original-d="m 79.540716,166.40752 c 14.266362,0.79095 26.752344,6.31893 35.080334,13.11522" />
    <path
       style="opacity:0.1;fill:#000000;fill-opacity:1;stroke:none;stroke-width:0.10665672px;stroke-linecap:butt;stroke-linejoin:miter;stroke-opacity:1"
       d="m 71.629755,132.83623 c 0.219352,-0.14021 5.184591,6.47899 7.553552,16.50622 2.366379,10.01629 0.818028,18.1464 0.515439,18.10875 -0.14616,-0.0182 0.03664,-2.04346 -0.0104,-5.2956 -0.04857,-3.35781 -0.377434,-7.63195 -1.544471,-12.56748 -2.280504,-9.64451 -6.762321,-16.59324 -6.514117,-16.75189 z"
       id="path4521-5-0-9-3-6-8-84-3-9"
       inkscape:connector-curvature="0"
       inkscape:path-effect="#path-effect4523-4-4-6-6-2-5-26-9-1"
       inkscape:original-d="m 71.629755,132.83623 c 7.246571,11.3372 9.367938,24.17623 8.068992,34.61496" />
    <path
       style="opacity:0.1;fill:#000000;fill-opacity:1;stroke:none;stroke-width:0.10665672px;stroke-linecap:butt;stroke-linejoin:miter;stroke-opacity:1"
       d="m 99.086463,108.74598 c 0.106694,0.0608 -0.761504,2.0267 -2.680802,4.92624 -1.961248,2.9629 -4.850916,6.62158 -8.848234,10.25585 -7.974019,7.24979 -16.08697,10.30842 -16.203374,10.05169 -0.06082,-0.13414 1.852958,-1.08336 4.780861,-2.86635 3.014612,-1.83581 6.762837,-4.39267 10.703965,-7.97569 3.943156,-3.58486 6.838422,-7.06866 8.949432,-9.89935 2.048668,-2.7471 3.170205,-4.56535 3.298152,-4.49239 z"
       id="path4521-5-0-9-3-6-8-86-0-3"
       inkscape:connector-curvature="0"
       inkscape:path-effect="#path-effect4523-4-4-6-6-2-5-7-5-9"
       inkscape:original-d="m 99.086463,108.74598 c -6.810695,11.94345 -17.527074,20.6065 -27.732409,25.23378" />
    <path
       style="opacity:0.1;fill:#000000;fill-opacity:1;stroke:none;stroke-width:0.13506621px;stroke-linecap:butt;stroke-linejoin:miter;stroke-opacity:1"
       d="m 147.61268,158.01287 c 0.1631,0.33547 -9.7327,5.07577 -19.39772,14.06133 -4.95357,4.60534 -8.51715,9.01738 -11.12012,12.6619 -2.51373,3.51959 -3.86068,5.86322 -4.02531,5.77558 -0.13612,-0.0725 0.88435,-2.59481 3.23387,-6.30778 2.40997,-3.80851 5.97292,-8.45269 10.99033,-13.12028 9.99256,-9.29587 20.18531,-13.34563 20.31895,-13.07075 z"
       id="path4521-5-0-9-3-6-8-4-0"
       inkscape:connector-curvature="0"
       inkscape:path-effect="#path-effect4523-4-4-6-6-2-5-11-8"
       inkscape:original-d="m 147.61268,158.01287 c -16.27305,7.91153 -28.14663,20.48296 -34.54315,32.4988" />
    <path
       style="opacity:0.1;fill:#000000;fill-opacity:1;stroke:none;stroke-width:0.13506621px;stroke-linecap:butt;stroke-linejoin:miter;stroke-opacity:1"
       d="m 140.40751,114.93327 c 0.36756,0.0637 -1.46275,10.37382 0.59801,22.75356 1.05461,6.33535 2.76407,11.48779 4.35207,15.43288 1.53802,3.82092 2.74351,6.09652 2.58173,6.18936 -0.133,0.0763 -1.66469,-2.01683 -3.45612,-5.8069 -1.83323,-3.87852 -3.73857,-9.15315 -4.81186,-15.59312 -2.14493,-12.86998 0.4113,-23.03208 0.73617,-22.97578 z"
       id="path4521-5-0-9-3-6-8-84-30"
       inkscape:connector-curvature="0"
       inkscape:path-effect="#path-effect4523-4-4-6-6-2-5-26-67"
       inkscape:original-d="m 140.40751,114.93327 c -2.90954,16.78914 0.90186,32.82167 7.53181,44.37579" />
    <path
       style="opacity:0.1;fill:#000000;fill-opacity:1;stroke:none;stroke-width:0.13506621px;stroke-linecap:butt;stroke-linejoin:miter;stroke-opacity:1"
       d="m 96.54349,100.24942 c 0.113679,-0.14787 2.314024,1.42614 6.05205,3.63073 3.85177,2.27168 8.93931,4.92191 15.3001,7.17689 6.35751,2.25382 11.98713,3.40378 16.40683,4.07102 4.29258,0.64805 6.99245,0.81915 6.98713,1.00559 -0.004,0.15566 -2.71824,0.35549 -7.10309,-0.0568 -4.478,-0.4211 -10.29723,-1.45961 -16.74286,-3.74483 -6.44824,-2.28614 -11.6149,-5.14335 -15.35655,-7.64278 -3.661609,-2.44598 -5.638406,-4.31646 -5.54361,-4.43977 z"
       id="path4521-5-0-9-3-6-8-86-9"
       inkscape:connector-curvature="0"
       inkscape:path-effect="#path-effect4523-4-4-6-6-2-5-7-0"
       inkscape:original-d="m 96.54349,100.24942 c 13.8036,10.61155 30.56163,15.47922 44.7461,15.88423" />
    <path
       style="opacity:0.1;fill:#000000;fill-opacity:1;stroke:none;stroke-width:0.13506621px;stroke-linecap:butt;stroke-linejoin:miter;stroke-opacity:1"
       d="m 71.791472,173.26992 c 0.01692,-0.30515 10.982497,-0.51312 23.793031,4.1944 6.432137,2.36363 11.514017,5.26822 15.209487,7.84818 3.60276,2.51523 5.51943,4.44657 5.42192,4.56605 -0.11793,0.14451 -2.26655,-1.49574 -5.94595,-3.7691 -3.81002,-2.35408 -8.80269,-5.04435 -15.151877,-7.37526 -12.388436,-4.54804 -23.347261,-5.0918 -23.326611,-5.46427 z"
       id="path4521-5-0-9-3-6-8-4-4-0"
       inkscape:connector-curvature="0"
       inkscape:path-effect="#path-effect4523-4-4-6-6-2-5-11-0-5"
       inkscape:original-d="m 71.791472,173.26992 c 18.0664,1.00161 33.878198,8.00206 44.424438,16.60863" />
    <path
       style="opacity:0.1;fill:#000000;fill-opacity:1;stroke:none;stroke-width:0.13506621px;stroke-linecap:butt;stroke-linejoin:miter;stroke-opacity:1"
       d="m 61.773303,130.75643 c 0.130347,-0.0833 1.753674,1.93617 3.761961,5.62307 2.046782,3.75758 4.306518,8.94316 5.803539,15.27958 1.501176,6.35401 1.784269,11.95514 1.593881,16.24084 -0.186046,4.18798 -0.788913,6.7106 -0.941086,6.69167 -0.185092,-0.023 0.04639,-2.58775 -0.01318,-6.70617 -0.06151,-4.25222 -0.477976,-9.66492 -1.955919,-15.91522 -1.472753,-6.22835 -3.534309,-11.3195 -5.340322,-15.15792 -1.75861,-3.73767 -3.066034,-5.9554 -2.908876,-6.05585 z"
       id="path4521-5-0-9-3-6-8-84-3-2"
       inkscape:connector-curvature="0"
       inkscape:path-effect="#path-effect4523-4-4-6-6-2-5-26-9-11"
       inkscape:original-d="m 61.773303,130.75643 c 9.176803,14.35701 11.863223,30.61592 10.218296,43.83515" />
    <path
       style="opacity:0.1;fill:#000000;fill-opacity:1;stroke:none;stroke-width:0.13506621px;stroke-linecap:butt;stroke-linejoin:miter;stroke-opacity:1"
       d="m 96.54349,100.24942 c 0.135115,0.077 -0.964365,2.56658 -3.394904,6.23845 -2.483673,3.75214 -6.143018,8.3853 -11.204985,12.98753 -5.060085,4.60051 -10.024711,7.80902 -13.99126,9.92936 -3.884057,2.07625 -6.463874,2.94162 -6.528181,2.79979 -0.07702,-0.16987 2.346493,-1.37191 6.054282,-3.62983 3.817582,-2.32478 8.56425,-5.56271 13.555214,-10.10019 4.993384,-4.53967 8.659812,-8.95136 11.333141,-12.53607 2.594369,-3.47883 4.014666,-5.78144 4.176693,-5.68904 z"
       id="path4521-5-0-9-3-6-8-86-0-9"
       inkscape:connector-curvature="0"
       inkscape:path-effect="#path-effect4523-4-4-6-6-2-5-7-5-1"
       inkscape:original-d="m 96.54349,100.24942 c -8.624816,15.12473 -22.195645,26.09531 -35.119327,31.95513" />
    <path
       style="opacity:0.1;fill:#000000;fill-opacity:1;stroke:none;stroke-width:0.05278302px;stroke-linecap:butt;stroke-linejoin:miter;stroke-opacity:1"
       d="m 122.50474,148.00771 c 0.0637,0.13111 -3.80347,1.9836 -7.5805,5.49509 -3.77703,3.5115 -5.79007,7.27375 -5.91875,7.20525 -0.14364,-0.0765 1.66078,-3.96621 5.55872,-7.59238 3.90503,-3.63277 7.8883,-5.21539 7.94053,-5.10796 z"
       id="path4521-5-0-9-3-6-8-4-44"
       inkscape:connector-curvature="0"
       inkscape:path-effect="#path-effect4523-4-4-6-6-2-5-11-82"
       inkscape:original-d="m 122.50474,148.00771 c -6.35941,3.09179 -10.99953,8.00461 -13.49925,12.70033" />
    <path
       style="opacity:0.1;fill:#000000;fill-opacity:1;stroke:none;stroke-width:0.05278302px;stroke-linecap:butt;stroke-linejoin:miter;stroke-opacity:1"
       d="m 119.689,131.1725 c 0.14363,0.0249 -0.57165,4.05402 0.23368,8.89194 0.80534,4.83793 2.83616,8.37727 2.70973,8.44982 -0.13089,0.0751 -2.39377,-3.3389 -3.23109,-8.36298 -0.83822,-5.0295 0.16073,-9.00078 0.28768,-8.97878 z"
       id="path4521-5-0-9-3-6-8-84-45"
       inkscape:connector-curvature="0"
       inkscape:path-effect="#path-effect4523-4-4-6-6-2-5-26-8"
       inkscape:original-d="m 119.689,131.1725 c -1.13703,6.56107 0.35243,12.82648 2.9434,17.34175" />
    <path
       style="opacity:0.1;fill:#000000;fill-opacity:1;stroke:none;stroke-width:0.05278302px;stroke-linecap:butt;stroke-linejoin:miter;stroke-opacity:1"
       d="m 102.54722,125.43415 c 0.0889,-0.11558 3.47871,2.49864 8.34429,4.22354 4.86557,1.72491 9.14637,1.83819 9.14221,1.98391 -0.004,0.13944 -4.29198,0.29654 -9.31885,-1.48567 -5.02622,-1.78198 -8.25454,-4.60875 -8.16765,-4.72178 z"
       id="path4521-5-0-9-3-6-8-86-75"
       inkscape:connector-curvature="0"
       inkscape:path-effect="#path-effect4523-4-4-6-6-2-5-7-3"
       inkscape:original-d="m 102.54722,125.43415 c 5.39436,4.14692 11.9433,6.04917 17.48649,6.20745" />
    <path
       style="opacity:0.1;fill:#000000;fill-opacity:1;stroke:none;stroke-width:0.05278302px;stroke-linecap:butt;stroke-linejoin:miter;stroke-opacity:1"
       d="m 92.874229,153.97007 c 0.0066,-0.11927 4.291982,-0.20049 9.298171,1.63914 4.99709,1.83628 8.16556,4.72534 8.06267,4.85141 -0.0922,0.11295 -3.40371,-2.57786 -8.24495,-4.35516 -4.841234,-1.7773 -9.123961,-1.98983 -9.115891,-2.13539 z"
       id="path4521-5-0-9-3-6-8-4-4-39"
       inkscape:connector-curvature="0"
       inkscape:path-effect="#path-effect4523-4-4-6-6-2-5-11-0-7"
       inkscape:original-d="m 92.874229,153.97007 c 7.060242,0.39143 13.239441,3.12716 17.360841,6.49055" />
    <path
       style="opacity:0.1;fill:#000000;fill-opacity:1;stroke:none;stroke-width:0.05278302px;stroke-linecap:butt;stroke-linejoin:miter;stroke-opacity:1"
       d="m 88.959199,137.35607 c 0.1086,-0.0694 2.565802,3.20655 3.738126,8.1686 1.171082,4.95679 0.404918,8.98054 0.255119,8.9619 -0.144666,-0.018 0.359051,-4.06756 -0.769521,-8.84032 -1.128552,-4.77267 -3.346557,-8.21167 -3.223724,-8.29018 z"
       id="path4521-5-0-9-3-6-8-84-3-6"
       inkscape:connector-curvature="0"
       inkscape:path-effect="#path-effect4523-4-4-6-6-2-5-26-9-3"
       inkscape:original-d="m 88.959199,137.35607 c 3.586231,5.61064 4.63607,11.96451 3.993245,17.1305" />
    <path
       style="opacity:0.1;fill:#000000;fill-opacity:1;stroke:none;stroke-width:0.05278302px;stroke-linecap:butt;stroke-linejoin:miter;stroke-opacity:1"
       d="m 102.54722,125.43415 c 0.12384,0.0706 -1.75985,3.92603 -5.7056,7.5134 -3.946252,3.58782 -7.961252,5.1015 -8.018859,4.97445 -0.0602,-0.13277 3.843577,-1.89299 7.66326,-5.36559 3.819679,-3.47259 5.934559,-7.19448 6.061199,-7.12226 z"
       id="path4521-5-0-9-3-6-8-86-0-0"
       inkscape:connector-curvature="0"
       inkscape:path-effect="#path-effect4523-4-4-6-6-2-5-7-5-2"
       inkscape:original-d="m 102.54722,125.43415 c -3.370561,5.91064 -8.673974,10.19787 -13.724455,12.48785" />
    <path
       style="opacity:0.1;fill:#000000;fill-opacity:1;stroke:none;stroke-width:0.15962359px;stroke-linecap:butt;stroke-linejoin:miter;stroke-opacity:1"
       d="m 155.34202,160.82096 c 0.0964,0.19823 -2.72228,1.69876 -7.05767,4.45388 -4.43943,2.82124 -10.05504,6.7608 -15.86686,12.16406 -5.85422,5.44267 -10.06572,10.65689 -13.14195,14.96405 -2.97076,4.15951 -4.56261,6.92925 -4.75718,6.82567 -0.16087,-0.0856 1.04514,-3.06659 3.82184,-7.45465 2.84814,-4.50096 7.05889,-9.98952 12.98855,-15.50577 5.89601,-5.48494 11.75485,-9.38115 16.37592,-11.9652 4.54362,-2.54074 7.55628,-3.64877 7.63735,-3.48204 z"
       id="path4521-5-0-9-3-6-8-4-47"
       inkscape:connector-curvature="0"
       inkscape:path-effect="#path-effect4523-4-4-6-6-2-5-11-19"
       inkscape:original-d="m 155.34201,160.82095 c -19.23173,9.35001 -33.26413,24.20712 -40.82366,38.40766" />
    <path
       style="opacity:0.1;fill:#000000;fill-opacity:1;stroke:none;stroke-width:0.15962359px;stroke-linecap:butt;stroke-linejoin:miter;stroke-opacity:1"
       d="m 146.82682,109.90872 c 0.21719,0.0376 -0.19394,3.05225 -0.40201,7.92961 -0.21369,5.00883 -0.13323,11.49978 1.10877,18.96095 1.24635,7.48724 3.26662,13.57648 5.14334,18.23885 1.81765,4.51564 3.24232,7.20499 3.05113,7.3147 -0.15719,0.0902 -1.96736,-2.38352 -4.0845,-6.8627 -2.16654,-4.5837 -4.41831,-10.81734 -5.68674,-18.42822 -1.26496,-7.59005 -1.17259,-14.27451 -0.65956,-19.30529 0.50339,-4.93616 1.34943,-7.87912 1.52957,-7.8479 z"
       id="path4521-5-0-9-3-6-8-84-9"
       inkscape:connector-curvature="0"
       inkscape:path-effect="#path-effect4523-4-4-6-6-2-5-26-1"
       inkscape:original-d="m 146.82682,109.90872 c -3.4385,19.84172 1.06584,38.78924 8.90123,52.4441" />
    <path
       style="opacity:0.1;fill:#000000;fill-opacity:1;stroke:none;stroke-width:0.15962359px;stroke-linecap:butt;stroke-linejoin:miter;stroke-opacity:1"
       d="m 94.987614,92.555175 c 0.134347,-0.17476 2.734753,1.685428 7.152416,4.290842 4.55209,2.684698 10.56462,5.816773 18.08191,8.481743 7.51341,2.6636 14.16658,4.02263 19.38985,4.81119 5.07304,0.76588 8.26379,0.96808 8.25749,1.18842 -0.005,0.18397 -3.21244,0.42012 -8.39454,-0.0672 -5.29216,-0.49766 -12.16942,-1.72499 -19.78697,-4.42569 -7.62064,-2.70179 -13.72668,-6.07847 -18.14862,-9.032341 -4.327353,-2.890684 -6.663568,-5.101242 -6.551536,-5.246974 z"
       id="path4521-5-0-9-3-6-8-86-6"
       inkscape:connector-curvature="0"
       inkscape:path-effect="#path-effect4523-4-4-6-6-2-5-7-8"
       inkscape:original-d="M 94.987614,92.555175 C 111.30095,105.09604 131.10588,110.84872 147.86928,111.32737" />
    <path
       style="opacity:0.1;fill:#000000;fill-opacity:1;stroke:none;stroke-width:0.15962359px;stroke-linecap:butt;stroke-linejoin:miter;stroke-opacity:1"
       d="m 65.73524,178.852 c 0.02,-0.3608 12.979955,-0.60613 28.118852,4.95696 7.601818,2.79344 13.607748,6.22621 17.975068,9.27522 4.25779,2.97254 6.52289,5.25499 6.40765,5.39619 -0.13937,0.17078 -2.67859,-1.76764 -7.02695,-4.45434 -4.5027,-2.78206 -10.40322,-5.96154 -17.906989,-8.71631 C 78.66277,179.93508 65.710835,179.29219 65.73524,178.852 Z"
       id="path4521-5-0-9-3-6-8-4-4-6"
       inkscape:connector-curvature="0"
       inkscape:path-effect="#path-effect4523-4-4-6-6-2-5-11-0-4"
       inkscape:original-d="m 65.73524,178.852 c 21.351183,1.18374 40.03782,9.45697 52.50157,19.62837" />
    <path
       style="opacity:0.1;fill:#000000;fill-opacity:1;stroke:none;stroke-width:0.15962359px;stroke-linecap:butt;stroke-linejoin:miter;stroke-opacity:1"
       d="m 53.895538,128.60883 c 0.154046,-0.0985 2.072586,2.28828 4.446053,6.64561 2.418974,4.44086 5.089552,10.56931 6.858731,18.05776 1.774083,7.5092 2.108632,14.12865 1.883624,19.19351 -0.219877,4.94938 -0.932352,7.93063 -1.112194,7.90826 -0.218745,-0.0272 0.05483,-3.05822 -0.01557,-7.92539 -0.07268,-5.0253 -0.564861,-11.42206 -2.311487,-18.8087 -1.7405,-7.36073 -4.176864,-13.37756 -6.311293,-17.91397 -2.078394,-4.41733 -3.623594,-7.03836 -3.437862,-7.15708 z"
       id="path4521-5-0-9-3-6-8-84-3-4"
       inkscape:connector-curvature="0"
       inkscape:path-effect="#path-effect4523-4-4-6-6-2-5-26-9-34"
       inkscape:original-d="m 53.895538,128.60883 c 10.845367,16.96737 14.020231,36.18241 12.076215,51.80513" />
    <path
       style="opacity:0.1;fill:#000000;fill-opacity:1;stroke:none;stroke-width:0.15962359px;stroke-linecap:butt;stroke-linejoin:miter;stroke-opacity:1"
       d="m 94.987614,92.555175 c 0.15968,0.09106 -1.139659,3.03314 -4.012083,7.372575 -2.9352,4.43427 -7.259902,9.90989 -13.242354,15.34899 -5.979923,5.4368 -11.847102,9.22865 -16.534939,11.73457 -4.590305,2.45379 -7.639306,3.47656 -7.715306,3.30894 -0.09103,-0.20076 2.773256,-1.6214 7.155243,-4.28989 4.511793,-2.74754 10.121367,-6.57415 16.019615,-11.93646 5.901391,-5.36516 10.234476,-10.57906 13.393809,-14.815451 3.066042,-4.111299 4.744529,-6.832469 4.936015,-6.723274 z"
       id="path4521-5-0-9-3-6-8-86-0-5"
       inkscape:connector-curvature="0"
       inkscape:path-effect="#path-effect4523-4-4-6-6-2-5-7-5-29"
       inkscape:original-d="M 94.987614,92.555175 C 84.794659,110.42976 68.756383,123.39502 53.482933,130.32025" />
    <path
       style="opacity:0.1;fill:#000000;fill-opacity:1;stroke:none;stroke-width:0.08444738px;stroke-linecap:butt;stroke-linejoin:miter;stroke-opacity:1"
       d="m 122.40145,238.19871 c -0.33386,0.054 -2.90713,-14.61077 -6.13312,-33.82864 0,0 0,0 0,0 -0.33497,-1.99546 -0.77155,-4.58854 -1.10651,-6.58399 -0.92491,-5.5082 -1.74006,-10.40762 -2.50886,-15.24074 -2.35928,-14.83203 -3.75496,-25.33752 -3.51725,-25.3757 0.28564,-0.0459 2.1301,10.38921 4.67402,25.18426 0.76154,4.42901 1.74036,10.10429 2.5998,15.22267 0.37763,2.24894 0.74046,4.43759 1.0906,6.58992 0,0 0,0 0,0 3.12982,19.23938 5.18772,33.98593 4.90132,34.03222 z"
       id="path6207"
       inkscape:connector-curvature="0"
       inkscape:path-effect="#path-effect6209;#path-effect6211"
       inkscape:original-d="m 122.40145,238.19871 c -2.0147,-12.46159 -4.02956,-24.9266 -6.04457,-37.39502 -0.96112,-5.53911 -1.9224,-11.08166 -2.88385,-16.62762 -1.44562,-8.99873 -2.89139,-18.00086 -4.33732,-27.00642"
       inkscape:export-xdpi="198"
       inkscape:export-ydpi="198" />
    <path
       style="opacity:0.1;fill:#000000;fill-opacity:1;stroke:none;stroke-width:0.1871489px;stroke-linecap:butt;stroke-linejoin:miter;stroke-opacity:1"
       d="m 167.98357,167.70373 c -0.22966,0.51694 -10.5939,-3.66717 -23.18295,-9.21144 -3.53627,-1.55739 -6.94509,-3.08654 -9.90662,-4.4382 -7.55692,-3.44895 -12.78062,-5.84185 -12.65173,-6.17824 0.14938,-0.38988 5.63474,1.3806 13.35587,4.55382 3.0524,1.25436 6.41858,2.6877 9.99512,4.26282 12.59856,5.54843 22.60139,10.53611 22.39031,11.01124 z"
       id="path6306"
       inkscape:connector-curvature="0"
       inkscape:path-effect="#path-effect6308;#path-effect6310"
       inkscape:original-d="m 167.98357,167.70373 c -12.55873,-5.57698 -25.11477,-11.15519 -37.6682,-16.73468 -2.6937,-1.02982 -5.38474,-2.06089 -8.0731,-3.0932" />
    <path
       style="opacity:0.1;fill:#000000;fill-opacity:1;stroke:none;stroke-width:0.12827736px;stroke-linecap:butt;stroke-linejoin:miter;stroke-opacity:1"
       d="m 88.959199,137.35607 c -0.08746,0.37922 -10.627658,-1.72757 -23.527222,-4.70266 -12.899564,-2.97509 -23.297792,-5.69743 -23.21033,-6.07665 0.08746,-0.37923 10.627658,1.72757 23.527222,4.70265 12.899564,2.97509 23.297792,5.69744 23.21033,6.07666 z"
       id="path6368"
       inkscape:connector-curvature="0"
       inkscape:path-effect="#path-effect6370;#path-effect6372"
       inkscape:original-d="M 88.959199,137.35607 C 73.378336,133.76384 57.799178,130.17073 42.221651,126.57676" />
    <path
       style="opacity:0.1;fill:#000000;fill-opacity:1;stroke:none;stroke-width:0.15965576px;stroke-linecap:butt;stroke-linejoin:miter;stroke-opacity:1"
       d="m 95.074602,151.09377 c 0.31139,0.34248 -9.770584,9.96748 -22.45349,21.53647 -2.398085,2.18746 -4.729132,4.29901 -6.915429,6.26649 0,0 -2e-6,0 -2e-6,0 -9.372301,8.4342 -16.269308,14.4622 -16.52356,14.18893 -0.244735,-0.26305 6.230313,-6.7463 15.469075,-15.34137 0,0 2e-6,0 2e-6,0 2.160403,-2.00988 4.461591,-4.1298 6.866608,-6.32359 12.68571,-11.57155 23.260235,-20.6531 23.556796,-20.32693 z"
       id="path6386"
       inkscape:connector-curvature="0"
       inkscape:path-effect="#path-effect6388;#path-effect6390"
       inkscape:original-d="m 95.074602,151.09377 c -11.123023,10.11583 -22.246203,20.22941 -33.369549,30.34069 -4.17415,3.88601 -8.348463,7.76973 -12.522927,11.65119" />
    <path
       style="opacity:0.1;fill:#000000;fill-opacity:1;stroke:none;stroke-width:0.13415399px;stroke-linecap:butt;stroke-linejoin:miter;stroke-opacity:1"
       d="m 102.63888,126.47915 c -0.42919,0.086 -2.63561,-9.68617 -5.140873,-21.75927 -0.478338,-2.30516 -0.952417,-4.61496 -1.376186,-6.696899 0,0 -10e-7,-10e-7 -10e-7,-10e-7 -1.790255,-8.79638 -3.193376,-15.159475 -2.858058,-15.244295 0.296133,-0.07491 2.236869,6.157283 4.220614,14.951976 0,10e-7 0,10e-7 10e-7,2e-6 0.47638,2.111982 0.960137,4.347697 1.446575,6.691867 2.508208,12.0872 4.070818,21.98388 3.707928,22.05662 z"
       id="path6440"
       inkscape:connector-curvature="0"
       inkscape:path-effect="#path-effect6442;#path-effect6444"
       inkscape:original-d="M 102.63888,126.47915 C 100.50059,115.81923 98.364163,105.16053 96.229522,94.503133 95.239075,90.593784 94.250494,86.685628 93.263763,82.778689" />
    <path
       style="opacity:0.1;fill:#000000;fill-opacity:1;stroke:none;stroke-width:0.13201134px;stroke-linecap:butt;stroke-linejoin:miter;stroke-opacity:1"
       d="m 168.30199,94.317923 c 0.28886,0.369515 -10.65525,9.390587 -24.41184,20.156457 -3.2247,2.52364 -6.32618,4.92609 -9.1766,7.11211 0,0 0,0 0,0 -9.30709,7.13768 -16.00789,12.05404 -16.22865,11.77482 -0.22057,-0.27897 6.10347,-5.67376 15.26197,-13.00824 0,0 0,-1e-5 0,-1e-5 2.80878,-2.24938 5.8757,-4.67751 9.10531,-7.20499 13.75767,-10.76672 25.1661,-19.193062 25.44981,-18.830147 z"
       id="path6470"
       inkscape:connector-curvature="0"
       inkscape:path-effect="#path-effect6472;#path-effect6474"
       inkscape:original-d="m 168.30199,94.317923 c -12.88489,10.073757 -25.76836,20.145307 -38.65044,30.214607 -3.72365,2.9452 -7.44588,5.88813 -11.16665,8.82878" />
  </g>
</svg>
